<svg xmlns="http://www.w3.org/2000/svg" xmlns:xlink="http://www.w3.org/1999/xlink" width="100%" height="100%" viewBox="0 0 719.373 535.013">
  <defs>
    <linearGradient id="linear-gradient" x1="-Infinity" y1="Infinity" x2="Infinity" y2="Infinity" gradientUnits="objectBoundingBox">
      <stop offset="0" stop-color="gray" stop-opacity="0.251"/>
      <stop offset="0.54" stop-color="gray" stop-opacity="0.122"/>
      <stop offset="1" stop-color="gray" stop-opacity="0.102"/>
    </linearGradient>
    <linearGradient id="linear-gradient-2" x1="0" y1="0.5" x2="1" y2="0.5" xlink:href="#linear-gradient"/>
  </defs>
  <g id="undraw_design_tools_42tf" transform="translate(-0.005 0.03)">
    <path id="Path_16" data-name="Path 16" d="M731.852,633.09a86.829,86.829,0,0,1-14.213,27.6c-.841,1.09-1.7,2.14-2.571,3.17q-1.761,2-3.609,3.93c-9.572,9.83-20.782,16.55-31.727,21.45q-4.474,2-8.979,3.76-3.8,1.49-7.607,2.78c-.964.34-1.928.66-2.892,1s-2.07.67-3.09,1l-1.465.45c-28.316,8.45-57,10.06-85.9,7.94l-1.372-.11-2.194-.18q-8.8-.74-17.618-1.89l-2.225-.29-.983-.13q-4.944-.67-9.888-1.47-6.513-1-13.045-2.21l-.562-.1-.457-.09h0c-15.542-2.83-31.121-6.23-46.719-9.72l-2.206-.5-3.961-.89-3.337-.75h0l-.989-.22q-7.9-1.79-15.8-3.54l-.853-.19c-9.888-2.19-19.831-4.3-29.743-6.22l-1.292-.25h0q-6.087-1.17-12.168-2.23l-3.09-.53-4.11-.67c-11.389-1.83-22.772-3.29-34.131-4.2q-8.194-.66-16.426-1-6.8-.25-13.6-.29-9.22-.07-18.477.17h-1.4c-8.695.23-17.408.63-26.128,1.11l-1.57.08h-.519c-18.539,1.06-37.078,2.47-55.568,3.48l-4.517.24h-.655q-9.64.5-19.262.77H201.13l-2.867.06q-4.468.07-8.917.08H185.7c-10.889-.05-21.734-.44-32.512-1.35l-1.2-.11a264.322,264.322,0,0,1-61.989-12.48q-3.158-1.07-6.3-2.24A217.122,217.122,0,0,1,42.422,638c-6.328-4-12.693-8.62-17.507-16.44-12.211-20-7.626-59.17,8.262-70.56,12.427-8.91,26.987-1.66,40.354-5.68a14.683,14.683,0,0,0,2.429-1,28.66,28.66,0,0,0,4.944-3.3c.544-.44,1.088-.91,1.638-1.4A44.558,44.558,0,0,0,86.2,536a69.663,69.663,0,0,0,5.562-6.83q1.174-1.62,2.286-3.36a73.644,73.644,0,0,0,6.748-13.07c.7-1.809,1.317-3.693,1.854-5.64.29-1,.55-2.08.766-3.12a44.288,44.288,0,0,0,.735-4.62c.779-7.42-.482-14.66-4.87-20.78a16,16,0,0,0-1.236-1.51,19.455,19.455,0,0,0-2.682-2.51c-.377-.29-.766-.57-1.162-.84-5.648-3.85-12.934-5.33-19.077-8h0a26.519,26.519,0,0,1-5.463-3.07c-1.119-.84-2.231-1.72-3.325-2.64h0l-.29-.26h0c-9.34-7.793-17.554-18.7-24.1-32q-2.441-5.042-4.486-10.54c-.414-1.1-.816-2.23-1.2-3.36-10.858-31.7-11.976-72.32-.68-103.49a114.168,114.168,0,0,1,4.573-10.86q.816-1.71,1.687-3.36c10.753-20.53,26.2-34.44,41.8-44.74,20.937-13.82,42.857-22.55,65.2-28.3q6.8-1.75,13.6-3.14c18.972-3.92,38.166-6,57.224-7.58q26.74-2.19,53.714-2.83,9.14-.2,18.3-.17,20.634,0,41.268,1.29,6.8.42,13.6,1,17.433,1.46,34.8,4,8.343,1.22,16.648,2.69c42.171,7.46,83.729,20.11,123.854,39.78q6.829,3.34,13.6,7a432.2,432.2,0,0,1,49.679,31.07q2.3,1.67,4.585,3.36,15.2,11.28,29.959,24.31a362.04,362.04,0,0,1,37.449,38q7,8.3,13.6,17.32a291.252,291.252,0,0,1,21.7,34.64q.89,1.67,1.761,3.36,4.524,8.79,8.59,18.21c13.225,30.76,22.1,65.94,28.649,101.88C737.172,568.65,741.016,603.86,731.852,633.09Z" transform="translate(-17.96 -172.03)" fill="#d95560" opacity="0.1"/>
    <path id="Path_17" data-name="Path 17" d="M721.709,525.81H669.924V417.14h23.035q-.855-1.69-1.728-3.36H669.948V379.14q-6.462-9-13.336-17.32v52H537.227V299.5h53.228q-2.249-1.69-4.5-3.36h-48.73V265.07q-6.668-3.63-13.336-7v38H353.508l-.406-.64,49.288-77.18q-8.147-1.48-16.33-2.69L351.926,269V211.6q-6.668-.58-13.336-1v62.09l-40.48-63.38q-8.977,0-17.949.17l54.895,85.95-.406.64H171.329V220q-6.668,1.39-13.336,3.14v73H53.028q-.855,1.65-1.655,3.36H157.981V413.78H47.53c.376,1.13.77,2.26,1.176,3.36H157.981V525.81H104.231q-1.091,1.74-2.243,3.36h55.992v111.2q6.668,1.57,13.336,3.28V529.17H338.578V668.5q6.668,0,13.336.29V529.17H523.879V699.74l.552.1q6.4,1.18,12.8,2.21V529.17H656.576V697.73c1.018-.31,2.037-.64,3.031-1s1.891-.63,2.837-1q3.734-1.31,7.462-2.78V529.17h52.2Zm-383.131,0H171.329V417.14H338.578Zm0-112H171.329V299.5H336.208l2.352,3.06Zm185.3,112H351.926V417.14H523.879Zm0-112H351.926V299.5H523.879Zm132.7,112H537.227V417.14H656.576Z" transform="translate(-17.96 -172.03)" fill="#6c63ff" opacity="0.1"/>
    <path id="Path_18" data-name="Path 18" d="M315.15,679.24a1.423,1.423,0,0,1-.11.33h0a.883.883,0,0,1,.12-.33Z" transform="translate(-17.96 -172.03)" fill="#eaecf0"/>
    <path id="Path_19" data-name="Path 19" d="M320.37,674.45h-6.18l-4.64.06-.51-5.27-.47-5-2.18-22.81-.07-.7v-.31l-.61-6.42,9.34-3.5,1.14,9.31.08.69v.08l2.31,18.9.71,5.8.41,3.37.35,2.89v.1Z" transform="translate(-17.96 -172.03)" fill="#eaecf0"/>
    <path id="Path_20" data-name="Path 20" d="M335.94,507.2l.11.33h-.74l-.11-.33Z" fill="#3a3768"/>
    <path id="Path_21" data-name="Path 21" d="M439.4,679.55Z" transform="translate(-17.96 -172.03)" fill="#3a3768"/>
    <path id="Path_22" data-name="Path 22" d="M498.74,547.48v.43s-8.72,23.83-11.56,44.17q-.29,2-.48,4c-.14,1.41-.25,2.79-.31,4.13-.08,1.57-.1,3.09-.06,4.54v1c0,.67.07,1.36.11,2.07s.1,1.42.16,2.16.12,1.39.19,2.1c2.15,22,10.32,54.21,10.32,54.21s.27.87.62,2.35h-2.26c-14.07.23-28.17.63-42.28,1.11l-2.54.08h-.84c-30,1.06-60,2.47-89.92,3.48l-7.31.24h-1.06q-15.6.5-31.17.77H317.6a16.847,16.847,0,0,1,2.42-2.73,17.6,17.6,0,0,1,2.45-1.9,55.141,55.141,0,0,1,15.35-6.59,12.24,12.24,0,0,1,3.51-.43l7,.14h1.08l10.74.21,92.12,1.83h.23l.65-.13a17.252,17.252,0,0,0,3.11-1.1,10.92,10.92,0,0,0,6.56-8.48c0-.31.08-.64.1-1a11.8,11.8,0,0,0,0-1.46,4.963,4.963,0,0,0-.08-1.07c-.08-.37-.1-.74-.17-1.12-2.22-12.41-6-50.61-6-50.61V600s0-1.63.09-4.37v-1.26c0-.61.07-1.27.11-2,0-.43.06-.87.09-1.33.05-.67.11-1.36.17-2.08a.588.588,0,0,1,0-.13q.06-.68.12-1.38v-.15c1.49-14.75,6.18-38.1,21-46.75,6.95-4.07,11.55-4.89,14.58-4.09,4.42,1.16,5.53,5.76,5.77,8.75v.58a14.613,14.613,0,0,1,.14,1.69Z" transform="translate(-17.96 -172.03)" fill="#3a3768"/>
    <path id="Path_23" data-name="Path 23" d="M315.15,679.24a1.423,1.423,0,0,1-.11.33h0a.883.883,0,0,1,.12-.33Z" transform="translate(-17.96 -172.03)" opacity="0.1"/>
    <path id="Path_24" data-name="Path 24" d="M335.94,507.2l.11.33h-.74l-.11-.33Z" opacity="0.1"/>
    <path id="Path_25" data-name="Path 25" d="M439.4,679.55Z" transform="translate(-17.96 -172.03)" opacity="0.1"/>
    <path id="Path_26" data-name="Path 26" d="M498.74,547.48v.31s-7.19,19.65-10.62,38.49h0q-.36,2-.66,3.87c-.1.64-.19,1.28-.28,1.92q-.29,2-.48,4c-.14,1.41-.25,2.79-.31,4.13-.08,1.57-.1,3.09-.06,4.54v1c0,.67.07,1.36.11,2.07s.1,1.43.16,2.16.12,1.39.19,2.1.14,1.39.22,2.09c.32,2.83.72,5.8,1.18,8.82,3.13,20.37,8.92,43.19,8.92,43.19s.29.92.64,2.46h-2.26c-14.07.23-28.17.63-42.28,1.11l-2.54.08h-.84c-30,1.06-60,2.47-89.92,3.48l-7.31.24h-1.06q-15.6.5-31.17.77h-2.84a17.181,17.181,0,0,1,2.5-2.83,16.562,16.562,0,0,1,2.46-1.92,55.741,55.741,0,0,1,15.35-6.59,12.59,12.59,0,0,1,3.51-.42l7,.14h1.08l10.77.21,92.19,1.82h.16a2.535,2.535,0,0,0,.72-.15,16.158,16.158,0,0,0,3.13-1.13,10.91,10.91,0,0,0,6.47-8.31c0-.31.08-.64.1-1a11.8,11.8,0,0,0,0-1.46,4.963,4.963,0,0,0-.08-1.07c-.08-.37-.1-.81-.17-1.23-2.22-12.41-6-50.61-6-50.61s0-1.63.09-4.37v-1.26c0-.61.07-1.27.11-2,0-.43.06-.87.09-1.33.05-.67.11-1.36.17-2.08a.588.588,0,0,1,0-.13q.06-.68.12-1.38v-.15c.18-1.84.42-3.82.72-5.89,2.08-14.48,7.28-33.39,20.24-41,6.77-4,11.3-4.84,14.34-4.15,4.68,1.07,5.79,5.89,6,8.93v.58a14.6,14.6,0,0,1,.14,1.95Z" transform="translate(-17.96 -172.03)" opacity="0.1"/>
    <path id="Path_27" data-name="Path 27" d="M315.15,679.24a1.423,1.423,0,0,1-.11.33h0a.883.883,0,0,1,.12-.33Z" transform="translate(-17.96 -172.03)" fill="#3a3768"/>
    <path id="Path_28" data-name="Path 28" d="M335.94,507.2l.11.33h-.74l-.11-.33Z" fill="#3a3768"/>
    <path id="Path_29" data-name="Path 29" d="M439.4,679.55Z" transform="translate(-17.96 -172.03)" fill="#3a3768"/>
    <path id="Path_30" data-name="Path 30" d="M496.18,546.63s-13.05,35.66-12.42,57,10.82,61.44,10.82,61.44.44,1.41.91,3.66c-14.07.23-28.17.63-42.28,1.11l-2.54.08h-.84c-30,1.06-60,2.47-89.92,3.48l-7.31.24h-1.06q-15.6.5-31.17.77h-6.18a18,18,0,0,1,5.49-5.77l.27-.19A55.662,55.662,0,0,1,335.29,662a12.59,12.59,0,0,1,3.51-.42l9.24.18h1.08l11.13.22L450,663.77a15.089,15.089,0,0,0,3.71-1.21,10.658,10.658,0,0,0,1.14-.61h0a12,12,0,0,0,3-2.45c1.89-2.15,3.15-5.35,2.31-10-2.23-12.41-6-50.61-6-50.61s-.64-46.48,21.64-59.53c9-5.27,14.06-5.09,16.89-3a1.878,1.878,0,0,1,.24.18C496.83,539.68,496.18,546.63,496.18,546.63Z" transform="translate(-17.96 -172.03)" fill="#3a3768"/>
    <path id="Path_31" data-name="Path 31" d="M137.08,634.13l-.36,3.73-2.18,22.89q-5.11-1.07-10.2-2.24l2.55-20.81.86-7.07Z" transform="translate(-17.96 -172.03)" fill="#eaecf0"/>
    <path id="Path_32" data-name="Path 32" d="M55.12,454.7l54.46-115.91L328.95,355.9l20.22,98.8Z" fill="#efc6cd"/>
    <path id="Path_33" data-name="Path 33" d="M55.12,464.81V454.7H349.17v14.78Z" fill="#d48a9b"/>
    <path id="Path_34" data-name="Path 34" d="M156,609.8l131.56,2.68a1.82,1.82,0,0,0,1.77-2.39l-20.51-55.32-88.61-1.69L154,606.74a2.18,2.18,0,0,0,2,3.06Z" transform="translate(-17.96 -172.03)" fill="#dfe6f5"/>
    <path id="Path_35" data-name="Path 35" d="M156,609.8l131.56,2.68a1.82,1.82,0,0,0,1.77-2.39l-20.51-55.32-88.61-1.69L154,606.74a2.18,2.18,0,0,0,2,3.06Z" transform="translate(-17.96 -172.03)" opacity="0.15"/>
    <path id="Path_36" data-name="Path 36" d="M154.94,607.49l132.92,2.8-18.07-54.73a4.51,4.51,0,0,0-4.19-3.1l-85.42-1.62Z" transform="translate(-17.96 -172.03)" fill="#dfe6f5"/>
    <path id="Path_37" data-name="Path 37" d="M165.92,595.1l15.93-35.05a4.25,4.25,0,0,1,3.86-2.48H225.3a4.23,4.23,0,0,1,4.23,4.23v37.87a4.24,4.24,0,0,1-4.44,4.23l-55.53-2.83a4.23,4.23,0,0,1-3.64-5.97Z" transform="translate(-17.96 -172.03)" fill="#4c4c56"/>
    <path id="Path_38" data-name="Path 38" d="M244,590.66l.68-20a3.07,3.07,0,0,1,3.06-3h11.7a3.06,3.06,0,0,1,3,2.54l3.44,19.89a3.07,3.07,0,0,1-3,3.59l-15.83.14a3.06,3.06,0,0,1-3.05-3.16Z" transform="translate(-17.96 -172.03)" fill="#d1d9ec"/>
    <path id="Path_39" data-name="Path 39" d="M89,460.58l44.11-3.68a3,3,0,0,1,3.14,1.77l41.71,94.41-23.28,52.26c.73-1.64,1.27,11.12-4,.06L84.39,467.11C83.5,465.26,86.93,460.84,89,460.58Z" transform="translate(-17.96 -172.03)" fill="#4c4c56"/>
    <path id="Path_40" data-name="Path 40" d="M89,460.58l44.11-3.68a3,3,0,0,1,3.14,1.77l41.71,94.41-23.28,52.26c.73-1.64,1.27,11.12-4,.06L84.39,467.11C83.5,465.26,86.93,460.84,89,460.58Z" transform="translate(-17.96 -172.03)" opacity="0.15"/>
    <path id="Path_41" data-name="Path 41" d="M89,460.58l46.35-5.92a3,3,0,0,1,3.14,1.77l41.72,94.41-25.24,56.65L86.63,464.87A3,3,0,0,1,89,460.58Z" transform="translate(-17.96 -172.03)" fill="#4c4c56"/>
    <path id="Path_42" data-name="Path 42" d="M100.57,467.22,134.08,462a3,3,0,0,1,3.25,1.84l35.1,85.86a2.72,2.72,0,0,1-.06,2.2L156.3,585.48a2.71,2.71,0,0,1-4.91,0l-53.09-114a3,3,0,0,1,2.27-4.26Z" transform="translate(-17.96 -172.03)" fill="#d95560"/>
    <path id="Path_43" data-name="Path 43" d="M439.4,679.55Z" transform="translate(-17.96 -172.03)" fill="url(#linear-gradient)"/>
    <path id="Path_44" data-name="Path 44" d="M458.12,660.68s-.69,1.14-1.7,3l-.09.17c-.9,1.6-2,3.7-3.12,6l-2.54.08h-.84c-30,1.06-60,2.47-89.92,3.48l-7.31.24h-1.06q-15.6.5-31.17.77h-6.18l-4.64.06q-7.23.07-14.43.08H289.4c-17.62-.05-35.17-.44-52.61-1.35l-1.94-.11c3.43-7.46,9.56-19.69,14.54-23.6,3.85-3,31.5-6.33,56.93-8.77l2.68-.26h.06l7.1-.66c9.73-.89,18.56-1.61,24.86-2.1l.58-.05-3.28-11-4.75-16,1.35-13.44.11-1.08h-.15a8.83,8.83,0,0,1-4-.5L283.39,594h-.86l-18.24-.65h0c-9.78-.35-16.73-.61-17-.66a4.316,4.316,0,0,1-.84-.23,3.779,3.779,0,0,1-1.16-.7,4.64,4.64,0,0,1-1-1.2h-.64l-2.58.17-1.31.09c-.05-.14-.09-.28-.14-.41-.12-.39-.24-.76-.35-1.14h-.69l-9-.19h-.16s-23.22,1.77-35.35-2.65h0c-4.45-1.62-7.41-4.07-7.18-7.74a8.37,8.37,0,0,1,.52-2.44c-3.9-7.29,15.15-20.59,29.67-16.92a25.7,25.7,0,0,0,12.06.5,15.519,15.519,0,0,0,6-2.73c.18-.13.34-.26.49-.39-.24-.15-.49-.28-.72-.4a11.179,11.179,0,0,0-3.17-1.1l3.94-1.15h.06s14-1.28,23.11-1.79h.06c2.71-.14,5-.23,6.36-.19,6,.17,17.69-4.12,18.19-5.44s5.84,0,5.84,0l4.67-1.82c4.67-1.81,7.34-4.28,7.34-6.1s4.17-3.79,4.17-3.79c1.88-3.16,5.57-6.55,9.44-9.55,3.35-2.59,6.83-4.9,9.41-6.51a189.731,189.731,0,0,1,4-19.24c1.77-5.91,7.26-10.29,9.23-11.71l.72-.48a51.847,51.847,0,0,0-2.2-7.32,5.641,5.641,0,0,0-.24-.6c-.2-.47-.41-.93-.62-1.36l-.31-.6c-.51.1-1,.19-1.54.26a35,35,0,0,1-5,.37,34.31,34.31,0,0,1-33.15-25s0,0,0-.06a33.86,33.86,0,0,1-1.2-9,32.92,32.92,0,0,1,1.14-8.64h0c.15-.6.33-1.19.52-1.78a1.589,1.589,0,0,1,.07-.2c.09-.27.18-.55.28-.82a35.167,35.167,0,0,1-4.47.39h-1a21.16,21.16,0,0,1-8.37-1.39h0a11.361,11.361,0,0,1-1.85-1,.24.24,0,0,1-.08-.06A9.38,9.38,0,0,1,278.2,429a10.6,10.6,0,0,0,4.07-7.08c.27-2.16-.09-4.57,1.2-6.33a9.079,9.079,0,0,1,2.34-2c5.32-3.63,9.54-8.61,14.35-12.9s10.63-8,17.1-8.2c8.68-.27,16.32,5.77,24.92,6.91,2.64.35,5.35.23,7.93.89a27.3,27.3,0,0,1,8.05,4.08,20.21,20.21,0,0,1,5.74,4.88,17.211,17.211,0,0,1,2.34,5.59,61.817,61.817,0,0,1,2,12.81c.23,4.53,0,9.09.48,13.59a23.31,23.31,0,0,0,3.84,10.93h.13a15,15,0,0,0,1.24,1.52c-.85.27-1.7.51-2.57.72a40.56,40.56,0,0,1-4.39.87,12.794,12.794,0,0,1-2.05.17,6.112,6.112,0,0,1-1.42-.13l.88.59,2.44,1.64h0l.92.61,1.85,1.23c.42-1.23,1-1.56,1.67-1.48,1.36-1.28,3.39,1.49,3.39,1.49,1.19,2.28,4.39,4.55,7.22,6.23a57.057,57.057,0,0,0,5.13,2.68c37.37,22.27,35,55.59,37.2,58.23s2.34,12.2,2.34,12.2,5.51,32.49,8,35.3.16,3.79,2.33,6.93,1.67,11.54,1.67,11.54,1.5,19.79,6.84,24.08c4.79,3.85,11.19,36.24,12.46,42.86Z" transform="translate(-17.96 -172.03)" fill="url(#linear-gradient-2)"/>
    <path id="Path_45" data-name="Path 45" d="M239.09,556.44s-5.19,8.17-19.89,4.41-34.15,10.46-28.6,17.48,41.34-2,41.34-2l13.73-2.78-.9-11.43Z" transform="translate(-17.96 -172.03)" fill="#d38884"/>
    <path id="Path_46" data-name="Path 46" d="M239.09,556.44s-5.19,8.17-19.89,4.41-34.15,10.46-28.6,17.48,41.34-2,41.34-2l13.73-2.78-.9-11.43Z" transform="translate(-17.96 -172.03)" opacity="0.1"/>
    <path id="Path_47" data-name="Path 47" d="M243.87,556l-6.37-.33-3.92,1.14s12.42,1.8,9,18.63l13.39-.81Z" transform="translate(-17.96 -172.03)" fill="#a36468"/>
    <path id="Path_48" data-name="Path 48" d="M243.87,556l-6.37-.33-3.92,1.14s12.42,1.8,9,18.63l13.39-.81Z" transform="translate(-17.96 -172.03)" opacity="0.1"/>
    <path id="Path_49" data-name="Path 49" d="M328.19,518.36s-17.48,10-22.39,18.31c0,0-4.08,2-4.08,3.76s-2.62,4.24-7.19,6l-4.58,1.8s-5.23-1.31-5.72,0-11.92,5.55-17.81,5.39-28.92,2-28.92,2a20.47,20.47,0,0,1,11.6,22.71l54.42-2.28,20.58-4.58,12.1-12.09Z" transform="translate(-17.96 -172.03)" fill="#444053"/>
    <path id="Path_50" data-name="Path 50" d="M328.19,518.36s-17.48,10-22.39,18.31c0,0-4.08,2-4.08,3.76s-2.62,4.24-7.19,6l-4.58,1.8s-5.23-1.31-5.72,0-11.92,5.55-17.81,5.39-28.92,2-28.92,2a20.47,20.47,0,0,1,11.6,22.71l54.42-2.28,20.58-4.58,12.1-12.09Z" transform="translate(-17.96 -172.03)" opacity="0.1"/>
    <path id="Path_51" data-name="Path 51" d="M248,590.66l-7.7-.15-9-.19s-42.5,3.27-41.67-10.32,33.52-18.36,38.07-14.46c3.45,2.95,11.43,5.33,15.07,6.3,1.16.31,1.87.48,1.87.48Z" transform="translate(-17.96 -172.03)" fill="#d38884"/>
    <path id="Path_52" data-name="Path 52" d="M248,590.66l-7.7-.15c-3.07-10.55.49-16.36,2.51-18.64,1.16.31,1.87.48,1.87.48Z" transform="translate(-17.96 -172.03)" opacity="0.1"/>
    <path id="Path_53" data-name="Path 53" d="M253.19,591.24l-8,.56-3.8.26c-5.23-15.36,3.22-21.41,3.22-21.41h2.5l4.09.49Z" transform="translate(-17.96 -172.03)" fill="#a36468"/>
    <path id="Path_54" data-name="Path 54" d="M350.09,489.28l-9.48,18s-1.45-18.23-5.67-26.82c-1.08-2.2-2.34-3.76-3.81-4.23-4-1.26,19-26.47,19-26.47.77.16,5.17,3,10.56,6.67,5.93,4,13.07,8.88,17.87,12C387.67,474.24,350.09,489.28,350.09,489.28Z" transform="translate(-17.96 -172.03)" fill="#d38884"/>
    <path id="Path_55" data-name="Path 55" d="M337.93,489.62s-7.62,4.89-9.74,12.08-4.09,20.1-4.09,20.1,3.44,30.88,5.23,32.35,8.6,32.35,8.6,32.35l6.6-4.41-8.66-38.89S341.63,493.23,337.93,489.62Z" transform="translate(-17.96 -172.03)" fill="#444053"/>
    <path id="Path_56" data-name="Path 56" d="M337.93,489.62s-7.62,4.89-9.74,12.08-4.09,20.1-4.09,20.1,3.44,30.88,5.23,32.35,8.6,32.35,8.6,32.35l6.6-4.41-8.66-38.89S341.63,493.23,337.93,489.62Z" transform="translate(-17.96 -172.03)" opacity="0.1"/>
    <path id="Path_57" data-name="Path 57" d="M353.13,386.48H315.04l6.17-60.09h31.92Z" fill="#a36468"/>
    <path id="Path_58" data-name="Path 58" d="M282.84,679.24h.46l-.86.33Z" transform="translate(-17.96 -172.03)" fill="#67647e"/>
    <path id="Path_59" data-name="Path 59" d="M354.5,651.87l-7.45,2.86-1,.37-26.82,10.31L309,669.34l-13.92,5.35H289.4c-17.62-.05-35.17-.44-52.61-1.35,3.38-7.41,9.29-19.27,14.11-23.1,3.76-3,30.66-6.24,55.49-8.68,3.1-.3,6.16-.59,9.14-.86l.71-.07c9.86-.9,18.78-1.63,25-2.13l1-.08,7.82-.6.82-.82,1,4.28.83,3.42Z" transform="translate(-17.96 -172.03)" fill="#67647e"/>
    <path id="Path_60" data-name="Path 60" d="M282.84,679.24h.46l-.86.33Z" transform="translate(-17.96 -172.03)" opacity="0.1"/>
    <path id="Path_61" data-name="Path 61" d="M354.5,651.87l-7.45,2.86-1,.37-26.82,10.31L309,669.34l-13.92,5.35H289.4c-17.62-.05-35.17-.44-52.61-1.35,3.38-7.41,9.29-19.27,14.11-23.1,3.76-3,30.66-6.24,55.49-8.68,3.1-.3,6.16-.59,9.14-.86l.71-.07c9.86-.9,18.78-1.63,25-2.13l1-.08,7.82-.6.82-.82,1,4.28.83,3.42Z" transform="translate(-17.96 -172.03)" opacity="0.1"/>
    <path id="Path_62" data-name="Path 62" d="M282.84,679.24h.46l-.86.33Z" transform="translate(-17.96 -172.03)" fill="#67647e"/>
    <path id="Path_63" data-name="Path 63" d="M315.15,679.24a1.423,1.423,0,0,1-.11.33h0a.883.883,0,0,1,.12-.33Z" transform="translate(-17.96 -172.03)" fill="#67647e"/>
    <path id="Path_64" data-name="Path 64" d="M336.05,507.53h-.74l-.11-.33h.74Z" fill="#67647e"/>
    <path id="Path_65" data-name="Path 65" d="M360.87,641.42,360.25,662v1.22l-.31,10.19-7.31.24h-1.06q-15.6.5-31.17.77h-6.18l-4.64.06q-7.23.07-14.43.08H289.4c5.2-3.22,11.93-6.77,19.17-10.32,3.25-1.6,6.62-3.19,10-4.76,9-4.18,18.11-8.13,25.54-11.28l.95-.4c2.88-1.22,5.49-2.31,7.72-3.23,4.82-2,7.88-3.2,8.09-3.28Z" transform="translate(-17.96 -172.03)" fill="#67647e"/>
    <path id="Path_66" data-name="Path 66" d="M294.08,556.84c1.87,3.9,3.8,7.88,6.89,10.92.49.48,1.34.92,1.78.39a1.26,1.26,0,0,0,.19-.74,9.54,9.54,0,0,0-1.8-5.1c-1-1.54-2.18-2.94-3.07-4.54s-1.91-4.68-3.91-5.1C291.59,552.13,293.51,555.66,294.08,556.84Z" transform="translate(-17.96 -172.03)" opacity="0.1"/>
    <path id="Path_67" data-name="Path 67" d="M360.65,456.4c-.14.5-.29,1-.45,1.48a33.69,33.69,0,0,1-25.26,22.55c-1.08-2.2-2.34-3.76-3.81-4.23-4-1.26,19-26.47,19-26.47C350.86,449.89,355.26,452.78,360.65,456.4Z" transform="translate(-17.96 -172.03)" opacity="0.1"/>
    <path id="Path_68" data-name="Path 68" d="M361.85,446.79a33.59,33.59,0,1,1-9.838-23.822,33.66,33.66,0,0,1,9.838,23.822Z" transform="translate(-17.96 -172.03)" fill="#d38884"/>
    <path id="Path_69" data-name="Path 69" d="M341.1,496.79s-7,8.5-5.88,14.06h8.49l6.21-7Z" transform="translate(-17.96 -172.03)" fill="#67647e"/>
    <path id="Path_70" data-name="Path 70" d="M366,460.9l-26.7,36.71s6.86,9.81,10.13,10.3,21.92-43.42,21.92-43.42Z" transform="translate(-17.96 -172.03)" opacity="0.1"/>
    <path id="Path_71" data-name="Path 71" d="M366.34,460.24,339.63,497s6.86,9.8,10.13,10.29,21.92-43.41,21.92-43.41Z" transform="translate(-17.96 -172.03)" fill="#a36468"/>
    <path id="Path_72" data-name="Path 72" d="M336.2,507.26s-1.31,20.58-2.62,24.67,0,41.66,0,41.66l12.26-5.06-2.13-57.68Z" transform="translate(-17.96 -172.03)" fill="#67647e"/>
    <path id="Path_73" data-name="Path 73" d="M335.94,507.2l.11.33h-.74l-.11-.33Z" opacity="0.1"/>
    <path id="Path_74" data-name="Path 74" d="M439.4,679.55Z" transform="translate(-17.96 -172.03)" opacity="0.1"/>
    <path id="Path_75" data-name="Path 75" d="M454.34,661.51s-.23.38-.61,1-.79,1.39-1.32,2.37a.753.753,0,0,0-.07.12c-.74,1.37-1.62,3.05-2.51,4.88-30,1.06-60,2.47-89.92,3.48l-7.31.24h-1.06L348.4,663v-.11l-.33-1.12-2-6.66-2-6.77L342,641.12l-.76-2.62-.2-.66-3.26-11.1-4.42-15.07,1.43-14.38h0l.1-1.09,1.29-12.88.18-3.82h0l.1-2v-.57h0l.22-4.64.66-13.8.34-7.06h0l.06-1.07h0l.68-14.17,1.93-5.79,1-2.88,2.22-6.69.48-1.65h0c.7-2.51,2.11-7.47,3.43-12.24h0l.12-.41h0l.09-.31.94-3.39,1.17-4.35c.44-1.67.73-2.86.8-3.27.11-.71,2-3.85,4.48-8h0c5-8.27,12.52-20.44,13.38-24.52a.442.442,0,0,0,0-.1,5,5,0,0,1,.21-.73c.41-1.22,1-1.55,1.62-1.47a2,2,0,0,1,.79.31,6.29,6.29,0,0,1,1.56,1.5c1.17,2.25,4.3,4.5,7.07,6.17l.54.31.32.19c2.3,1.31,4.16,2.15,4.16,2.15,36.6,22.06,34.32,55.07,36.44,57.68s2.29,12.1,2.29,12.1,5.39,32.19,7.84,35,.17,3.76,2.29,6.87S435.22,594,435.22,594s1.47,19.6,6.7,23.85S454.34,661.51,454.34,661.51Z" transform="translate(-17.96 -172.03)" opacity="0.1"/>
    <path id="Path_76" data-name="Path 76" d="M455.32,661.19l-.44.76h0c-.35.62-.91,1.6-1.58,2.83l-.07.14c-.76,1.41-1.66,3.12-2.55,5h-.84c-30,1.06-60,2.47-89.92,3.48l-7.31.24L349.48,663v-.11l-.33-1.12-2.07-7-2-6.8-2-6.79-.79-2.72h0l-3.42-11.68-4.52-15.39,1.25-12.51.17-1.67L337.15,583h0l.53-11.08.65-13.39.17-3.51.19-4.06.08-1.71.65-13.38,1.93-5.78.83-2.49,1.94-5.85.41-1.24s1.87-6.57,3.68-13.08c.07-.24.14-.48.2-.72.16-.56.31-1.12.47-1.67h0c.16-.56.31-1.11.45-1.66.51-1.82,1-3.52,1.34-4.92.49-1.83.82-3.16.89-3.59.11-.71,2-3.94,4.57-8.14,4.73-7.82,11.63-19,13.09-23.64a7.5,7.5,0,0,0,.2-.73h0a3.81,3.81,0,0,1,.87-2c1.34-1.29,3.33,1.48,3.33,1.48,1.17,2.25,4.3,4.51,7.07,6.17a53.016,53.016,0,0,0,5,2.65c36.6,22.06,34.32,55.07,36.44,57.69s2.29,12.09,2.29,12.09,5.39,32.19,7.84,35,.17,3.76,2.29,6.86,1.63,11.44,1.63,11.44,1.47,19.61,6.7,23.86S455.32,661.19,455.32,661.19Z" transform="translate(-17.96 -172.03)" fill="#444053"/>
    <path id="Path_77" data-name="Path 77" d="M380.69,468.65c-3.59,5.22-9.44,14.4-11,21,0,0-5.72,5.89-7.85,5.56s2,4.41,2,4.41l-22.47,31.14,3.19-9.57s6.7-23.53,7-25.65,16.57-26.41,17.86-32.52c1-4.89,4.2-.49,4.2-.49C374.78,464.73,377.91,467,380.69,468.65Z" transform="translate(-17.96 -172.03)" opacity="0.1"/>
    <path id="Path_78" data-name="Path 78" d="M380.69,468c-3.59,5.21-9.44,14.4-11,20.95,0,0-5.72,5.88-7.85,5.56s2,4.41,2,4.41l-22.47,31.14,3.19-9.57s6.7-23.53,7-25.66,16.57-26.4,17.86-32.51c1-4.9,4.2-.49,4.2-.49C374.78,464.08,377.91,466.33,380.69,468Z" transform="translate(-17.96 -172.03)" fill="#444053"/>
    <path id="Path_79" data-name="Path 79" d="M410.87,532.52c.17,7.14-10.29,16.89-10.78,17.46s-32.52,27-32.52,27l-23,17.64a19.541,19.541,0,0,1-9,4.16L337.14,583l1.55-32c3.59-4,7.07-8.2,7.15-9.54.16-2.77,6-5.72,6-5.72s4.09-3.43,3.43-5.39S357.44,519,357.44,519c1.47-26.64,28.92-29.25,28.92-29.25s13.24,5.23,22.55,10.78S410.71,525.39,410.87,532.52Z" transform="translate(-17.96 -172.03)" opacity="0.1"/>
    <path id="Path_80" data-name="Path 80" d="M253.19,591.24l-8,.56c-3.38-5.75,1.27-21.15,1.27-21.15h.65l4.09.49Z" transform="translate(-17.96 -172.03)" opacity="0.1"/>
    <path id="Path_81" data-name="Path 81" d="M386.36,488.13s-27.45,2.62-28.92,29.25c0,0-2.78,9.32-2.13,11.28s-3.43,5.39-3.43,5.39-5.88,2.94-6,5.72-15,17.94-15,17.94-6.2,7.06-20.58,7.8-21.08,5.14-21.08,5.14-7-4.9-12.1-3.43-29.9,3.43-29.9,3.43-6.59,21.84,1.63,23.21c1,.16,81.9,2.94,81.9,2.94s5.53,2.61,13.86-3.76,23-17.65,23-17.65,32-26.47,32.52-27,11-10.33,10.78-17.46,7.36-26.42-2-32S386.36,488.13,386.36,488.13Z" transform="translate(-17.96 -172.03)" fill="#444053"/>
    <path id="Path_82" data-name="Path 82" d="M361.85,446.79a33.589,33.589,0,0,1-1.65,10.43,14.067,14.067,0,0,1-1.24-1.71q-2.34-3.6-4.69-7.2a19.46,19.46,0,0,0-4.77-5.62c-2-1.42-4.84-2-7-.74a7.01,7.01,0,0,0-3,5.61,63.693,63.693,0,0,0,.17,6.62,3.65,3.65,0,0,1-.61,2.39,3.92,3.92,0,0,1-2.58,1l-3,.41a2.15,2.15,0,0,1-2.76-1.37c-2.49-4.51-4.21-10.11-8.88-12.28-2.88-1.34-6.68-1.25-8.53-3.83-1.26-1.76-1.09-4.15-.72-6.29a49.65,49.65,0,0,1,1.75-7.12c.53-1.64,1.71-4.91-.91-5.24-1.78-.23-4.24,1.66-5.14,3s-1.12,3.13-1.76,4.66a11.13,11.13,0,0,1-6.15,5.71,17.619,17.619,0,0,1-4.24,1.15,33.66,33.66,0,0,1,65.7,10.34Z" transform="translate(-17.96 -172.03)" opacity="0.1"/>
    <path id="Path_83" data-name="Path 83" d="M308.3,424c-.91,1.39-1.12,3.12-1.76,4.65a11.14,11.14,0,0,1-6.14,5.71,23.629,23.629,0,0,1-8.43,1.5c-4.66.14-9.86-.57-12.86-4.14a10.53,10.53,0,0,0,4-7c.26-2.14-.09-4.53,1.18-6.28a9,9,0,0,1,2.28-1.93c5.22-3.6,9.34-8.54,14.06-12.78s10.41-7.93,16.75-8.13c8.49-.26,16,5.72,24.4,6.85,2.58.35,5.24.23,7.76.88a26.46,26.46,0,0,1,7.89,4,20.191,20.191,0,0,1,5.63,4.84,17.41,17.41,0,0,1,2.29,5.54,61.862,61.862,0,0,1,2,12.69c.23,4.48,0,9,.48,13.46s1.9,9,4.95,12.3a44,44,0,0,1-6.81,1.57,7.09,7.09,0,0,1-4.33-.34,7.63,7.63,0,0,1-2.64-2.85l-4.69-7.2a19.46,19.46,0,0,0-4.77-5.62c-2-1.42-4.84-2-7-.74-1.9,1.12-2.82,3.41-3,5.61a63.692,63.692,0,0,0,.17,6.62,3.65,3.65,0,0,1-.61,2.39,3.93,3.93,0,0,1-2.59,1l-3,.41a2.15,2.15,0,0,1-2.76-1.37c-2.49-4.52-4.21-10.11-8.88-12.28-2.88-1.34-6.68-1.25-8.53-3.83-1.26-1.76-1.09-4.15-.72-6.29a49.654,49.654,0,0,1,1.75-7.12c.53-1.64,1.71-4.91-.91-5.25C311.66,420.68,309.2,422.57,308.3,424Z" transform="translate(-17.96 -172.03)" fill="#444053"/>
    <path id="Path_84" data-name="Path 84" d="M384.44,503.07c2.53-.35,5.19-.58,7.56.39-6.17-2.53-16.21-1.56-21.83,1.92C370.68,506.55,382.48,503.34,384.44,503.07Z" transform="translate(-17.96 -172.03)" opacity="0.1"/>
    <path id="Path_85" data-name="Path 85" d="M387.39,511.27c6.15.41,12.5,1.27,18.33-.73-4.88-1.68-10.25-.62-15.39-1.13-4.1-.41-8.27-1.83-12.27-.79-1.67.43-7.82,3.26-7.4,5.33A33.23,33.23,0,0,1,387.39,511.27Z" transform="translate(-17.96 -172.03)" opacity="0.1"/>
    <path id="Path_86" data-name="Path 86" d="M371.1,524.71a9.24,9.24,0,0,1,3.82.4A58.429,58.429,0,0,0,389,526.66c3.62,0,7.52-.55,10.16-3Z" transform="translate(-17.96 -172.03)" opacity="0.1"/>
    <path id="Path_87" data-name="Path 87" d="M351.29,556a28.18,28.18,0,0,0,13.75,2.5,60.692,60.692,0,0,0,13.84-2.66c2-.59,4.18-1.33,5.35-3.07Z" transform="translate(-17.96 -172.03)" opacity="0.1"/>
    <path id="Path_88" data-name="Path 88" d="M395.56,560.4a73.46,73.46,0,0,0,30.52,9.45q-8.13-3.26-16.38-6.17a118.635,118.635,0,0,0-17.25-4.62,8.77,8.77,0,0,1,3.11,1.34Z" transform="translate(-17.96 -172.03)" opacity="0.1"/>
    <path id="Path_89" data-name="Path 89" d="M410.67,554.67a25.791,25.791,0,0,0,5.69.31,3.245,3.245,0,0,0,2.78-1c-4.29.18-8.52-.92-12.71-1.87-1.19-.28-3.33-.94-4.33-.23C404,553.24,408.27,554.19,410.67,554.67Z" transform="translate(-17.96 -172.03)" opacity="0.1"/>
    <path id="Path_90" data-name="Path 90" d="M436.46,644c2.25,3.86,4.53,7.76,7.64,11a56.064,56.064,0,0,0,5.73,4.92c-3.71-9.46-7.48-19-13.42-27.27-1.5-2.08-3.74-5.06-6.47-5.44-.78,2.31,1.19,6.4,2.14,8.57a82.484,82.484,0,0,0,4.38,8.22Z" transform="translate(-17.96 -172.03)" opacity="0.1"/>
    <path id="Path_91" data-name="Path 91" d="M327.13,573.26c-.17,1.6-.3,3.37.63,4.68a3.38,3.38,0,0,0,1.9,1.31c-.48-.12-1-4.82-1.12-5.46-.22-1.31,0-3.76-.93-4.73C327.37,570.44,327.28,571.86,327.13,573.26Z" transform="translate(-17.96 -172.03)" opacity="0.1"/>
    <path id="Path_92" data-name="Path 92" d="M332.33,571.42a10.66,10.66,0,0,0,5,6.77c-1.75-2.16-2.32-5-3.84-7.37-.49-.76-1.06-1.85-2-2q.355,1.32.84,2.6Z" transform="translate(-17.96 -172.03)" opacity="0.1"/>
    <path id="Path_93" data-name="Path 93" d="M327.93,542.62a12.49,12.49,0,0,1-9.9,1.25c-.75-.22-2.5-1-2.08-2.1s2.45-.34,3.28-.24l4.35.55C324.38,542.18,327.28,543,327.93,542.62Z" transform="translate(-17.96 -172.03)" opacity="0.1"/>
    <path id="Path_94" data-name="Path 94" d="M313.21,549.74c2.05-.26,3.89,1.16,5.81,1.93a17.7,17.7,0,0,0,6.6.88c1.12,0,2.39-.09,3.08-1C323.49,550.36,318.62,549.05,313.21,549.74Z" transform="translate(-17.96 -172.03)" opacity="0.1"/>
    <path id="Path_95" data-name="Path 95" d="M319.97,317.58h.33l2.45,8.81-2.78,2.96Z" fill="#a36468"/>
    <g id="Group_1" data-name="Group 1" opacity="0.1">
      <path id="Path_96" data-name="Path 96" d="M283.75,419.76a20.637,20.637,0,0,0-.45,4.35,9.611,9.611,0,0,0,.27-1.4C283.69,421.75,283.68,420.74,283.75,419.76Z" transform="translate(-17.96 -172.03)"/>
      <path id="Path_97" data-name="Path 97" d="M313.58,420.9a1.76,1.76,0,0,1,1.64,2c.47-1.66.73-3.7-1.31-4-1.78-.22-4.24,1.67-5.14,3.05s-1.12,3.13-1.76,4.66a11.11,11.11,0,0,1-6.14,5.71,23.628,23.628,0,0,1-8.43,1.5c-4.24.13-8.93-.46-12-3.26a10.173,10.173,0,0,1-1.19,1.08c3,3.57,8.2,4.28,12.87,4.14a23.62,23.62,0,0,0,8.42-1.5,11.16,11.16,0,0,0,6.15-5.71c.64-1.53.84-3.26,1.75-4.65S311.8,420.68,313.58,420.9Z" transform="translate(-17.96 -172.03)"/>
      <path id="Path_98" data-name="Path 98" d="M366.4,455.76a7.09,7.09,0,0,1-4.33-.34,7.72,7.72,0,0,1-2.64-2.85q-2.34-3.6-4.69-7.2a19.3,19.3,0,0,0-4.76-5.62c-2-1.43-4.85-2-7-.74-1.91,1.12-2.83,3.41-3.05,5.61v.27a6.32,6.32,0,0,1,2.73-3.92c2.13-1.26,5-.68,7,.74a19.62,19.62,0,0,1,4.77,5.62q2.34,3.6,4.69,7.2a7.55,7.55,0,0,0,2.64,2.85,7.06,7.06,0,0,0,4.32.34,44.34,44.34,0,0,0,6.82-1.57,14.641,14.641,0,0,1-1.22-1.51,42.927,42.927,0,0,1-5.28,1.12Z" transform="translate(-17.96 -172.03)"/>
      <path id="Path_99" data-name="Path 99" d="M339.51,453.63a4,4,0,0,1-2.58,1l-3,.41a2.15,2.15,0,0,1-2.76-1.37c-2.49-4.52-4.21-10.11-8.88-12.28-2.88-1.34-6.67-1.25-8.52-3.83a7.36,7.36,0,0,1-.89-5.24c-.05.31-.12.61-.17.91-.36,2.14-.54,4.53.73,6.29,1.85,2.58,5.65,2.49,8.52,3.83,4.68,2.17,6.4,7.76,8.89,12.28A2.86,2.86,0,0,0,332,457a2.93,2.93,0,0,0,1.61.07l3-.41a3.92,3.92,0,0,0,2.58-1,3.59,3.59,0,0,0,.61-2.39h0A3,3,0,0,1,339.51,453.63Z" transform="translate(-17.96 -172.03)"/>
    </g>
    <g id="Group_3" data-name="Group 3" transform="translate(-720)" opacity="0.7">
      <path id="Path_201" data-name="Path 201" d="M933,179.57h165.67V340.71H933Z" transform="translate(-17.96 -172.03)" fill="#2e001e"/>
      <path id="Path_202" data-name="Path 202" d="M925.51,172V348.24h180.73V172Zm7.53,7.54h165.67V340.71H933Z" transform="translate(-17.96 -172.03)" fill="#ff2bc2"/>
      <path id="Path_203" data-name="Path 203" d="M1056.76,246.06a10.289,10.289,0,0,0-4.37-.76c-9.48,0-15.81,7.31-15.81,19.43,0,13.86,6.48,19.43,14.91,19.43a14.059,14.059,0,0,0,5.2-.83V246.06ZM1023,265.34c0-17.55,11.29-31.26,29.82-31.26a31.313,31.313,0,0,1,3.91.16V214.66a.76.76,0,0,1,.76-.76h12.12c.6,0,.75.23.75.61v68.82a53.042,53.042,0,0,0,.38,7.38c0,.53,0,.61-.45.83a44.931,44.931,0,0,1-19.28,4.37c-16.34,0-28-10.09-28-30.57Zm-25.68-12.2L1018.43,294c.38.6.15,1.2-.45,1.2h-13.1a1.47,1.47,0,0,1-1.58-1q-7.23-14.91-14.76-30.95h-.15c-4.52,10.09-9.49,21.09-14.31,31a1.45,1.45,0,0,1-1.36.83h-12.5c-.75,0-.82-.61-.45-1.06l20.63-39.68L960.45,215a.67.67,0,0,1,.53-1.13h12.95c.75,0,1.13.15,1.35.83,4.75,10,9.57,19.88,14.09,30h.15c4.36-9.94,9.18-20,13.78-29.82.37-.61.6-1,1.35-1h12.13c.6,0,.82.45.45,1.13l-19.88,38.18Z" transform="translate(-17.96 -172.03)" fill="#ff2bc2"/>
    </g>
  </g>
</svg>
