<svg xmlns="http://www.w3.org/2000/svg" width="100%" viewBox="0 0 868.573 659.414">
  <g id="undraw_code_review_l1q9" transform="translate(0 0)">
    <path id="Path_204" data-name="Path 204" d="M463.434,605.513C276.485,591.286,53.54,446.432,64.89,297.28S292.166,9.28,479.115,23.506,773.678,316.473,762.327,465.625,650.383,619.74,463.434,605.513Z" transform="translate(-43.21 -22.5)" fill="#f2f2f2"/>
    <ellipse id="Ellipse_13" data-name="Ellipse 13" cx="390.25" cy="23.909" rx="390.25" ry="23.909" transform="translate(45.653 559.152)" fill="#3f3d56"/>
    <ellipse id="Ellipse_14" data-name="Ellipse 14" cx="332.407" cy="15.811" rx="332.407" ry="15.811" transform="translate(103.496 566.865)" opacity="0.1"/>
    <ellipse id="Ellipse_15" data-name="Ellipse 15" cx="163.654" cy="14.268" rx="163.654" ry="14.268" transform="translate(0 630.878)" fill="#3f3d56"/>
    <ellipse id="Ellipse_16" data-name="Ellipse 16" cx="139.396" cy="9.435" rx="139.396" ry="9.435" transform="translate(24.257 635.481)" opacity="0.1"/>
    <rect id="Rectangle_12" data-name="Rectangle 12" width="579.976" height="455.034" transform="translate(151.314 124.942)" fill="#3f3d56"/>
    <path id="Path_205" data-name="Path 205" d="M557.588,264.1H414.509a1.736,1.736,0,1,1,0-3.473H557.588a1.736,1.736,0,1,1,0,3.473Z" transform="translate(-122.885 -76.973)" fill="#f2f2f2"/>
    <path id="Path_206" data-name="Path 206" d="M736.358,288.865H511.32a1.736,1.736,0,1,1,0-3.473H736.358a1.736,1.736,0,0,1,0,3.473Z" transform="translate(-145.031 -82.638)" fill="#f2f2f2"/>
    <path id="Path_207" data-name="Path 207" d="M558.489,313.631H415.409a1.736,1.736,0,0,1,0-3.473h143.08a1.736,1.736,0,1,1,0,3.473Z" transform="translate(-123.091 -88.303)" fill="#f2f2f2"/>
    <path id="Path_208" data-name="Path 208" d="M760.667,314.081H617.587a1.736,1.736,0,0,1,0-3.473h143.08a1.736,1.736,0,0,1,0,3.473Z" transform="translate(-169.34 -88.406)" fill="#f2f2f2"/>
    <path id="Path_209" data-name="Path 209" d="M558.939,338.4H415.859a1.736,1.736,0,1,1,0-3.473h143.08a1.736,1.736,0,1,1,0,3.473Z" transform="translate(-123.194 -93.968)" fill="#f2f2f2"/>
    <path id="Path_210" data-name="Path 210" d="M559.389,363.162H416.31a1.736,1.736,0,0,1,0-3.473H559.389a1.736,1.736,0,0,1,0,3.473Z" transform="translate(-123.297 -99.634)" fill="#f2f2f2"/>
    <path id="Path_211" data-name="Path 211" d="M673.876,264.549H632.9a1.736,1.736,0,1,1,0-3.473h40.979a1.736,1.736,0,0,1,0,3.473Z" transform="translate(-172.843 -77.076)" fill="#f2f2f2"/>
    <path id="Path_212" data-name="Path 212" d="M673.876,338.4H632.9a1.736,1.736,0,1,1,0-3.473h40.979a1.736,1.736,0,1,1,0,3.473Z" transform="translate(-172.843 -93.968)" fill="#f2f2f2"/>
    <path id="Path_213" data-name="Path 213" d="M673.876,362.712H632.9a1.736,1.736,0,0,1,0-3.473h40.979a1.736,1.736,0,0,1,0,3.473Z" transform="translate(-172.843 -99.531)" fill="#f2f2f2"/>
    <path id="Path_214" data-name="Path 214" d="M763.033,362.712H722.054a1.736,1.736,0,0,1,0-3.473h40.979a1.736,1.736,0,1,1,0,3.473Z" transform="translate(-193.238 -99.531)" fill="#f2f2f2"/>
    <path id="Path_215" data-name="Path 215" d="M455.037,288.865H414.058a1.736,1.736,0,0,1,0-3.473h40.979a1.736,1.736,0,1,1,0,3.473Z" transform="translate(-122.782 -82.638)" fill="#f2f2f2"/>
    <path id="Path_216" data-name="Path 216" d="M557.813,628.831H414.734a1.736,1.736,0,1,1,0-3.473H557.813a1.736,1.736,0,1,1,0,3.473Z" transform="translate(-122.937 -160.407)" fill="#f2f2f2"/>
    <path id="Path_217" data-name="Path 217" d="M556.913,678.362H413.833a1.736,1.736,0,1,1,0-3.473h143.08a1.736,1.736,0,0,1,0,3.473Z" transform="translate(-122.731 -171.737)" fill="#f2f2f2"/>
    <path id="Path_218" data-name="Path 218" d="M557.363,703.128H414.283a1.736,1.736,0,1,1,0-3.473h143.08a1.736,1.736,0,0,1,0,3.473Z" transform="translate(-122.834 -177.403)" fill="#f2f2f2"/>
    <path id="Path_219" data-name="Path 219" d="M666.9,678.812H625.918a1.736,1.736,0,1,1,0-3.473H666.9a1.736,1.736,0,0,1,0,3.473Z" transform="translate(-171.246 -171.84)" fill="#f2f2f2"/>
    <path id="Path_220" data-name="Path 220" d="M666.9,703.128H625.918a1.736,1.736,0,0,1,0-3.473H666.9a1.736,1.736,0,0,1,0,3.473Z" transform="translate(-171.246 -177.403)" fill="#f2f2f2"/>
    <path id="Path_221" data-name="Path 221" d="M756.053,678.812H715.074a1.736,1.736,0,1,1,0-3.473h40.979a1.736,1.736,0,0,1,0,3.473Z" transform="translate(-191.641 -171.84)" fill="#f2f2f2"/>
    <path id="Path_222" data-name="Path 222" d="M736.583,653.6H511.545a1.736,1.736,0,0,1,0-3.473H736.583a1.736,1.736,0,1,1,0,3.473Z" transform="translate(-145.083 -166.072)" fill="#f2f2f2"/>
    <path id="Path_223" data-name="Path 223" d="M455.262,653.6H414.283a1.736,1.736,0,0,1,0-3.473h40.979a1.736,1.736,0,0,1,0,3.473Z" transform="translate(-122.834 -166.072)" fill="#f2f2f2"/>
    <path id="Path_224" data-name="Path 224" d="M736.583,728.344H511.545a1.736,1.736,0,0,1,0-3.473H736.583a1.736,1.736,0,1,1,0,3.473Z" transform="translate(-145.083 -183.171)" fill="#f2f2f2"/>
    <path id="Path_225" data-name="Path 225" d="M455.262,728.344H414.283a1.736,1.736,0,1,1,0-3.473h40.979a1.736,1.736,0,0,1,0,3.473Z" transform="translate(-122.834 -183.171)" fill="#f2f2f2"/>
    <path id="Path_226" data-name="Path 226" d="M502.579,401.13,447.014,456l55.565,54.87,12.5-12.5L473.06,456.347l42.368-42.368Z" transform="translate(-102.257 -91.761)" fill="#d95560"/>
    <path id="Path_227" data-name="Path 227" d="M621.516,401.13,677.081,456l-55.565,54.87-12.5-12.5,42.021-42.021-42.368-42.368Z" transform="translate(-139.236 -91.761)" fill="#d95560"/>
    <circle id="Ellipse_17" data-name="Ellipse 17" cx="6.941" cy="6.941" r="6.941" transform="translate(159.797 129.569)" fill="#d95560"/>
    <circle id="Ellipse_18" data-name="Ellipse 18" cx="6.941" cy="6.941" r="6.941" transform="translate(178.307 129.569)" fill="#d95560"/>
    <circle id="Ellipse_19" data-name="Ellipse 19" cx="6.941" cy="6.941" r="6.941" transform="translate(196.817 129.569)" fill="#d95560"/>
    <rect id="Rectangle_13" data-name="Rectangle 13" width="579.976" height="2.314" transform="translate(151.314 148.079)" opacity="0.1"/>
    <path id="Path_228" data-name="Path 228" d="M1124.36,596.808c0,49.183-29.239,66.356-65.306,66.356s-65.306-17.173-65.306-66.356,65.306-111.752,65.306-111.752S1124.36,547.624,1124.36,596.808Z" transform="translate(-255.786 -128.312)" fill="#f2f2f2"/>
    <path id="Path_229" data-name="Path 229" d="M1030.646,633.14l.671-41.162,27.834-50.923-27.726,44.466.3-18.508,19.181-36.842-19.1,31.944h0l.54-33.288,20.546-29.331-20.461,24.1.339-61.037-2.121,80.8.17-3.333-20.885-31.969,20.554,38.368-1.951,37.176-.054-.987L1004.4,548.971l24,37.128-.239,4.649-.046.07.023.382-4.936,94.32h6.594l.787-48.718,23.947-37.038Z" transform="translate(-229.762 -105.812)" fill="#3f3d56"/>
    <path id="Path_230" data-name="Path 230" d="M152.877,772.248a33.257,33.257,0,0,1-6.307,2.7c-3.917,1.07-8.1.677-12.06,1.591-1.62.374-3.383,1.156-3.9,2.737a5.749,5.749,0,0,0,.427,3.566c4.372,12.818,7.007,26.428,13.979,38.038a57.566,57.566,0,0,0,10.792,13.1c1.585,1.429,3.381,2.826,5.5,3.05A5.59,5.59,0,0,0,167,829.18c-.625-1.389-1.787-2.465-2.537-3.791a14.466,14.466,0,0,1-1.4-5.391c-.689-5.482-1.352-11.212.547-16.4,1.274-3.48,3.611-6.447,5.558-9.6s3.564-6.765,3.131-10.446a18.143,18.143,0,0,0-2.815-6.983c-1.3-2.177-3.86-8.027-6.465-8.754C160.308,767.06,155.235,771.039,152.877,772.248Z" transform="translate(-58.305 -192.973)" fill="#2f2e41"/>
    <path id="Path_231" data-name="Path 231" d="M250.4,826.478a10.812,10.812,0,0,1-.512,3.66c-.816,2.154-2.839,3.63-3.884,5.682-1.454,2.854-.795,6.3.168,9.359.6,1.915,1.4,3.908,3.017,5.092a9.944,9.944,0,0,0,4.592,1.471c13.91,1.925,28.041.821,42.078,1.224,2.558.073,5.267.163,7.5-1.087s3.614-4.394,2.1-6.454c-1.364-1.85-4.061-1.833-6.357-1.942a26.154,26.154,0,0,1-16.129-6.644,11.655,11.655,0,0,1-2.262-2.6,16.006,16.006,0,0,1-1.183-2.713A120.926,120.926,0,0,0,272.523,816a8.22,8.22,0,0,0-3.012-3.607,7.96,7.96,0,0,0-3.27-.714c-3.5-.227-12.558-1.417-15.264,1.3C248.477,815.5,250.46,823.285,250.4,826.478Z" transform="translate(-84.543 -202.926)" fill="#2f2e41"/>
    <circle id="Ellipse_20" data-name="Ellipse 20" cx="22.347" cy="22.347" r="22.347" transform="translate(165.043 268.197)" fill="#fbbebe"/>
    <path id="Path_232" data-name="Path 232" d="M251.673,420.072a16.8,16.8,0,0,1-6.864,8.815l30.907,6.3a32.742,32.742,0,0,1-.433-13.781,7.943,7.943,0,0,0,.185-3.4c-.581-2.242-3.105-3.322-5.364-3.837-5.641-1.286-10.629-1.975-15.871-4.467C252.63,412.449,252.855,416.909,251.673,420.072Z" transform="translate(-84.463 -111.075)" fill="#fbbebe"/>
    <path id="Path_233" data-name="Path 233" d="M236.17,423.089a24.17,24.17,0,0,1,21.065.55c3.962,2.088,7.243,5.24,10.467,8.35,2.971,2.866,6.141,6.149,6.352,10.272.1,2-.521,3.951-.836,5.926A19.872,19.872,0,0,0,283.846,468.6c2.455,4.09,2.962,9.046,3,13.816.143,18.075-5.56,36.373-1.489,53.984.956,4.135,2.438,8.14,3.264,12.3,1.07,5.392,1.017,10.936,1.576,16.4a73.473,73.473,0,0,0,3.944,17.349c-1.345,2.139-4.144,2.96-6.665,2.786a18.828,18.828,0,0,1-7.128-2.418c-10.893-5.574-20.869-12.924-32.151-17.661-7.464-3.134-15.415-5.086-22.656-8.706s-13.975-9.364-16.189-17.151a40.145,40.145,0,0,1-1.068-10.414c-.22-14.741-.425-29.644,2.784-44.033,2.83-12.69,8.284-24.829,9.474-37.776.387-4.214.4-8.726,2.75-12.242C226.62,429.871,233.806,428.584,236.17,423.089Z" transform="translate(-76.082 -113.645)" fill="#2f2e41"/>
    <path id="Path_234" data-name="Path 234" d="M256.2,389.519c1.317-1.717,3.856-1.952,5.96-1.444s4.043,1.592,6.168,2a3.606,3.606,0,0,0,2.887-.406,4.2,4.2,0,0,0,1.246-2.754,52.571,52.571,0,0,0,.517-13.4,3.969,3.969,0,0,1,.122-1.88c.526-1.268,2.131-1.569,3.441-1.976a10.27,10.27,0,0,0,6.951-10.514,4.181,4.181,0,0,0-1.278-2.885,5.255,5.255,0,0,0-3.344-.793q-9.011-.072-18.021,0c-2.223.019-4.558.074-6.486,1.182a31.508,31.508,0,0,0-3.764,3.171c-3.337,2.693-7.85,3.24-11.909,4.62a11.806,11.806,0,0,0-5.219,3.112,5.5,5.5,0,0,0-1.151,5.7,20.247,20.247,0,0,0,1.455,2.24c2.394,3.829.8,8.795,1.158,13.3.447,5.621,8.765,14.74,14.406,16.07C258.446,407.012,253.185,393.209,256.2,389.519Z" transform="translate(-81.519 -98.66)" fill="#2f2e41"/>
    <path id="Path_235" data-name="Path 235" d="M245.756,707.56c.575,4.1,1.312,8.223,1.115,12.362-.275,5.779-2.359,11.348-2.745,17.121-.288,4.312.378,8.67-.221,12.95-.383,2.74-1.277,5.382-1.83,8.093a33.468,33.468,0,0,0,5.378,25.656,4.2,4.2,0,0,0,1.561,1.512,4.407,4.407,0,0,0,1.934.256,138.79,138.79,0,0,0,19.412-1.764,1.862,1.862,0,0,0,1.247-.55,1.747,1.747,0,0,0,.271-.736c1.191-6.121-1.525-12.258-2.215-18.455-.737-6.617.85-13.248,2.426-19.717a87.578,87.578,0,0,1,2.674-9.431c.762-2.08,1.682-4.1,2.342-6.218a47.4,47.4,0,0,0,1.7-10.182q.688-8.156.729-16.35a68.608,68.608,0,0,0-1.284-15.433c-1.448-6.431-4.414-12.4-7.354-18.3a11.589,11.589,0,0,0-4.333,2.059,96.694,96.694,0,0,1-11.839,6.541c-2.751,1.278-8.115,2.185-9.861,4.848-1.722,2.626-.611,7.983-.479,10.879Q244.72,700.157,245.756,707.56Z" transform="translate(-83.691 -170.247)" fill="#2f2e41"/>
    <path id="Path_236" data-name="Path 236" d="M245.756,707.56c.575,4.1,1.312,8.223,1.115,12.362-.275,5.779-2.359,11.348-2.745,17.121-.288,4.312.378,8.67-.221,12.95-.383,2.74-1.277,5.382-1.83,8.093a33.468,33.468,0,0,0,5.378,25.656,4.2,4.2,0,0,0,1.561,1.512,4.407,4.407,0,0,0,1.934.256,138.79,138.79,0,0,0,19.412-1.764,1.862,1.862,0,0,0,1.247-.55,1.747,1.747,0,0,0,.271-.736c1.191-6.121-1.525-12.258-2.215-18.455-.737-6.617.85-13.248,2.426-19.717a87.578,87.578,0,0,1,2.674-9.431c.762-2.08,1.682-4.1,2.342-6.218a47.4,47.4,0,0,0,1.7-10.182q.688-8.156.729-16.35a68.608,68.608,0,0,0-1.284-15.433c-1.448-6.431-4.414-12.4-7.354-18.3a11.589,11.589,0,0,0-4.333,2.059,96.694,96.694,0,0,1-11.839,6.541c-2.751,1.278-8.115,2.185-9.861,4.848-1.722,2.626-.611,7.983-.479,10.879Q244.72,700.157,245.756,707.56Z" transform="translate(-83.691 -170.247)" opacity="0.1"/>
    <path id="Path_237" data-name="Path 237" d="M199.161,605.518c-2.968,7.99,1.395,16.623,5.184,24.257,9.337,18.808,15.82,38.877,22.269,58.859.483,1.5.966,3.13.427,4.608a6.035,6.035,0,0,1-2.176,2.581c-4.447,3.377-10.109,4.58-15.405,6.347a69.552,69.552,0,0,0-14.609,6.849c-3.838,2.378-7.434,5.124-11.023,7.865L172.4,725.609a7.637,7.637,0,0,0-1.909,1.848c-1.1,1.729-.651,3.985-.1,5.96a101.368,101.368,0,0,0,5.593,15.264,5.33,5.33,0,0,0,2.028,2.658c1.783.958,3.964-.312,5.326-1.81s2.539-3.362,4.459-4,4.027.135,6.029-.146c3.238-.455,5.388-3.438,7.722-5.728,9.537-9.356,25.459-8.677,35.95-16.95a45.675,45.675,0,0,1,4.806-3.754c1.773-1.048,3.785-1.624,5.625-2.55,5.6-2.818,9.115-8.644,11-14.62s2.422-12.284,3.777-18.4a80.007,80.007,0,0,0,1.933-9.516,50.973,50.973,0,0,0-.2-9l-3.785-46.826c-.308-3.812-.617-7.629-1.215-11.407-11.242.4-22.476.854-33.725.987C216.769,607.721,207.654,608.347,199.161,605.518Z" transform="translate(-67.308 -155.868)" fill="#2f2e41"/>
    <path id="Path_238" data-name="Path 238" d="M202.184,614.274c1.525,2.453,5.237,2.4,7.793,1.057s4.542-3.6,7.1-4.937c3.443-1.792,7.517-1.724,11.4-1.615,6.142.173,12.359.358,18.268,2.041,6.112,1.741,12.062,5.093,18.382,4.424a3.781,3.781,0,0,0,2.9-1.362,4.276,4.276,0,0,0,.478-2.187l.207-5.521a4.986,4.986,0,0,0-.44-2.8,4.691,4.691,0,0,0-2.095-1.6c-9-4.355-19.254-5.165-29.242-5.508q-7.616-.261-15.238-.215c-4.312.026-9.489-.6-13.681.555C202.391,598.154,199.33,609.683,202.184,614.274Z" transform="translate(-74.464 -153.67)" fill="#2f2e41"/>
    <path id="Path_239" data-name="Path 239" d="M258.3,429.825c-11.786-.1-22.467-7.884-34.252-8.074a8.881,8.881,0,0,0-4.159.718c-1.642.827-2.722,2.427-3.969,3.778-3.485,3.774-8.531,5.788-12.111,9.472-3.357,3.454-5.224,8.6-3.9,13.229s6.327,8.182,11.013,7.069a28.383,28.383,0,0,1,11.058-15.024,56.216,56.216,0,0,1,8.642-4.536c5.3-2.4,11.22-4.846,16.75-3.047a23.63,23.63,0,0,1,5.714,3.116l9.219,6.193C261.227,438.482,260.261,433.729,258.3,429.825Z" transform="translate(-74.093 -113.826)" fill="#d95560"/>
    <path id="Path_240" data-name="Path 240" d="M207.688,454.765c-1.565,1.952.689,4.781.344,7.26-.229,1.647-1.584,2.9-2.149,4.468-.585,1.62-.275,3.414-.5,5.122a21.972,21.972,0,0,1-.983,3.648,65.536,65.536,0,0,0-2.072,10.817l-2.063,15.406a58.366,58.366,0,0,0-.652,7,20.906,20.906,0,0,1-.349,5.234,38.655,38.655,0,0,1-2.149,4.763c-.68,1.606-1,3.549-.077,5.032a8.8,8.8,0,0,0-1.841,10.979,6.091,6.091,0,0,1,.949,1.747,4.489,4.489,0,0,1-.418,2.576l-2.086,5.558c-.534,1.423-.7,3.589.782,3.914a13.115,13.115,0,0,0-2.816,4.448,5.3,5.3,0,0,0,.75,5.017,6.393,6.393,0,0,1,1.307,1.586,4.221,4.221,0,0,1-.151,2.5,9.182,9.182,0,0,0,1.136,7.2,6.457,6.457,0,0,0,6.493,2.783c4.173-.941,7.922-2.427,12.13-1.655,9.059,1.662,18.147,3.332,26.921,6.133,10.014,3.2,19.71,7.886,30.176,8.87a2.929,2.929,0,0,0,2.018-.314,3.031,3.031,0,0,0,.933-1.918l3.235-15.166a156.079,156.079,0,0,0,2.973-16.989c.368-3.687.473-7.4.578-11.1l.834-29.486a29.46,29.46,0,0,0-1.7-12.818l-4.8-15.308c-2.736-8.736-9.014-16.483-11.249-25.36-1.415-5.619-2.46-11.648-6.253-16.027-5.408-6.243-14.765-7.214-22.955-6.141a27.425,27.425,0,0,0-10.632,3.241c-3.7,2.219-6.427,5.714-9.064,9.129C212.125,449.728,209.912,451.99,207.688,454.765Z" transform="translate(-72.22 -116.671)" fill="#d95560"/>
    <path id="Path_241" data-name="Path 241" d="M237.12,567.65c.675,2.91,2.092,5.592,2.959,8.45,1.453,4.788,1.33,9.946,2.78,14.735.609,2.01,1.491,3.94,1.928,5.995,1.019,4.79-.469,9.745-2.316,14.28s-4.1,9.007-4.7,13.867c-.422,3.423.184,7.288,2.823,9.51,2.739,2.306,6.72,2.15,10.288,1.843a10.808,10.808,0,0,0,3.734-.777c2.728-1.291,3.878-4.519,4.515-7.47,2.137-9.887,1.527-20.134.906-30.23l-1.624-26.4c-.313-5.083-.648-10.272-2.214-15.152-.57-1.775-1.563-5.363-3.185-6.5-1.606-1.123-6.193-1.173-8.182-1.266C235.5,548.1,235.609,561.12,237.12,567.65Z" transform="translate(-82.529 -142.831)" fill="#fbbebe"/>
    <path id="Path_242" data-name="Path 242" d="M245.211,446.757a6.423,6.423,0,0,0-6.148.543,18.948,18.948,0,0,0-4.606,4.472c-4.118,5.026-8.477,10.793-7.866,17.262a43.777,43.777,0,0,0,1.787,7.074c2.761,10.319-.292,21.232.058,31.909.2,6.169,1.545,12.237,2.882,18.263.273,1.23.71,2.653,1.9,3.067a4.125,4.125,0,0,0,2.743-.425,21.881,21.881,0,0,1,20.024,2.524c2.21-1.179,1.382-4.907.886-7.362-1.472-7.294.526-14.819,2.953-21.854s5.33-14.06,5.732-21.49c.456-8.419-2.336-16.636-5.09-24.605a7.912,7.912,0,0,0-6.665-6.6C250.876,448.672,247.914,448.172,245.211,446.757Z" transform="translate(-80.282 -119.423)" fill="#2f2e41"/>
  </g>
</svg>
