<svg xmlns="http://www.w3.org/2000/svg" xmlns:xlink="http://www.w3.org/1999/xlink" width="100%" height="100%" viewBox="0 0 428.932 335.308">
  <defs>
    <linearGradient id="linear-gradient" x1="0.5" y1="1" x2="0.5" gradientUnits="objectBoundingBox">
      <stop offset="0" stop-color="gray" stop-opacity="0.251"/>
      <stop offset="0.54" stop-color="gray" stop-opacity="0.122"/>
      <stop offset="1" stop-color="gray" stop-opacity="0.102"/>
    </linearGradient>
    <linearGradient id="linear-gradient-3" x1="0.5" y1="1" x2="0.5" y2="0" xlink:href="#linear-gradient"/>
    <linearGradient id="linear-gradient-6" x1="0.5" y1="1" x2="0.5" y2="0" xlink:href="#linear-gradient"/>
    <linearGradient id="linear-gradient-7" x1="0.5" y1="1" x2="0.5" y2="0" xlink:href="#linear-gradient"/>
    <linearGradient id="linear-gradient-8" x1="0.5" y1="1" x2="0.5" y2="0" xlink:href="#linear-gradient"/>
    <linearGradient id="linear-gradient-10" x1="0.5" y1="1" x2="0.5" y2="0" xlink:href="#linear-gradient"/>
    <linearGradient id="linear-gradient-13" x1="0.5" y1="1" x2="0.5" y2="0" xlink:href="#linear-gradient"/>
  </defs>
  <g id="undraw_basketball_agx4" transform="translate(0 -0.011)">
    <path id="Path_243" data-name="Path 243" d="M319.609,691.27a20.843,20.843,0,0,1,3.8,21.68c-4.927,12.952,8.447,34.5,8.447,34.5l-.426-.068a25.41,25.41,0,0,1-16.868-38.9C318.3,702.815,321.343,696.171,319.609,691.27Z" transform="translate(-219.361 -420.776)" fill="#d95560"/>
    <path id="Path_244" data-name="Path 244" d="M329.278,691.27s4.927,10.7,0,19.43-.852,33.243,12.249,36.746" transform="translate(-229.03 -420.776)" fill="none" stroke="#535461" stroke-miterlimit="10" stroke-width="1"/>
    <path id="Path_245" data-name="Path 245" d="M295.56,773.973s9.96-1.585,10.868,7.339,19.153,10.165,19.153,10.165l-.341.226c-15.066,9.892-29.467,6.3-27.276-6.819C298.731,779.991,298.684,775.086,295.56,773.973Z" transform="translate(-210.843 -468.169)" fill="#d95560"/>
    <path id="Path_246" data-name="Path 246" d="M295.56,773.973s9.96-1.585,10.868,7.339,19.153,10.165,19.153,10.165l-.341.226c-15.066,9.892-29.467,6.3-27.276-6.819C298.731,779.991,298.684,775.086,295.56,773.973Z" transform="translate(-210.843 -468.169)" fill="#f5f5f5" opacity="0.2"/>
    <path id="Path_247" data-name="Path 247" d="M295.56,774.12s7.731,1.7,7.1,8.728,11.481,15.458,22.925,8.779" transform="translate(-210.843 -468.316)" fill="none" stroke="#535461" stroke-miterlimit="10" stroke-width="1"/>
    <path id="Path_248" data-name="Path 248" d="M474.5,211.768c4.876,10.011,1.773,24.374,8.677,32.556,5.063,6,13.467,5.967,19.208,11.03,4.466,3.951,6.691,10.416,8.716,16.553l9.836,29.833c4.479,13.587,8.306,31.078-.716,41.037-5.408,5.967-13.578,6.644-20.964,6.009-53.457-4.6-96.454-58.511-149.728-65.471-37.654-4.922-74.855,14.443-112.726,13.374-20.031-.567-39.588-6.819-58.916-13.058-14.865-4.786-31.363-11.081-38.451-27.216-3.167-7.211-4.151-15.922-8.856-21.851-3.606-4.547-8.818-6.7-13.3-9.994C97.777,210.2,95.54,178.07,97.24,151.011c.942-15.01,2.536-30.379,8.473-43.7s17.107-24.34,29.859-24.774c8.063-.277,15.769,3.567,23.615,5.715s17.047,2.212,22.937-4.262c4.833-5.315,6.35-13.851,11.183-19.178,3.763-4.138,9.014-5.745,14.09-6.729,27.3-5.293,56.376,3.9,77.783,24.574,5.2,5.025,10.16,10.821,16.519,13.4,8.468,3.431,17.725.524,26.679.6,31.589.256,53.013,34.444,75.277,56,13.016,12.6,25.605,15.317,39.729,23.713C452.126,181.56,469.233,200.947,474.5,211.768Z" transform="translate(-96.78 -56.6)" fill="#d95560" opacity="0.1"/>
    <rect id="Rectangle_14" data-name="Rectangle 14" width="19.11" height="174.583" transform="translate(110.531 152.061)" fill="url(#linear-gradient)"/>
    <path id="Path_249" data-name="Path 249" d="M272.4,766.633H212.47l21.284-13.463h16.067Z" transform="translate(-121.918 -432.173)" fill="url(#linear-gradient)"/>
    <path id="Path_250" data-name="Path 250" d="M158.44,155.66s80.788-79.9,185.442,0V224.7s-82.079,49.51-185.438,0Z" transform="translate(-132.161 -93.059)" fill="url(#linear-gradient-3)"/>
    <path id="Path_251" data-name="Path 251" d="M172.2,162.8s75.669-74.855,173.714,0v64.687s-76.888,46.378-173.714,0Z" transform="translate(-140.057 -98.441)" fill="url(#linear-gradient)"/>
    <rect id="Rectangle_15" data-name="Rectangle 15" width="46.032" height="39.086" transform="translate(95.764 102.555)" fill="url(#linear-gradient)"/>
    <rect id="Rectangle_16" data-name="Rectangle 16" width="38.216" height="32.45" transform="translate(99.672 105.871)" fill="url(#linear-gradient-6)"/>
    <g id="Group_4" data-name="Group 4" transform="translate(84.108 146.291)" opacity="0.1">
      <path id="Path_252" data-name="Path 252" d="M344.914,454.758l-14.52-25.017L317.515,453.88l-11.175-25.3-11.626,25.759-.4-.162c4.688-13.689.038-52.493,0-52.885l-.179-1.453,12.223,27.672,10.19-22.588,13.864,23.9,12.679-23.8,10.74,24.51L364.25,401.5l2.608-.52-.06.315c-.077.4-7.2,37.931-3.15,50.657l.963,2.2-.384.2a10.542,10.542,0,0,1-.989-2.255l-9.376-21.407Zm-14.281-25.482,14.192,24.467,8.784-23.615-10.561-24.1Zm-24.071-1.24,10.953,24.851,12.607-23.6-13.557-23.41Zm-11.686-25.384c.742,6.683,3.627,35.19.575,48.948l10.655-23.564Zm59.206,27.468,8.554,19.519c-2.6-13.894,2.983-44.37,3.682-48.1l-1.735.345Z" transform="translate(-294.13 -399.84)" fill="url(#linear-gradient-7)"/>
    </g>
    <g id="Group_5" data-name="Group 5" transform="translate(86.286 149.214)" opacity="0.1">
      <path id="Path_253" data-name="Path 253" d="M310.014,458.75,299.24,431.777l.4-.162,10.39,26,10.412-23.76-13.881-25.5.379-.209,13.719,25.209,10.4-23.73h.128l30.89-2.919-28.614,51.07-12.756-23.44Zm10.923-24.919,12.538,23.04L361.31,407.2l-29.935,2.83Z" transform="translate(-299.24 -406.7)" fill="url(#linear-gradient-8)"/>
    </g>
    <g id="Group_6" data-name="Group 6" transform="translate(117.286 149.79)" opacity="0.1">
      <path id="Path_254" data-name="Path 254" d="M301.044,401.587l-.222-.426L275.2,351.65l.388-.2,25.4,49.08,9.547-24.736.4.158Z" transform="translate(-275.2 -351.45)" fill="url(#linear-gradient)"/>
    </g>
    <path id="Path_255" data-name="Path 255" d="M327.832,387.91c-20.389,0-36.912,2.723-36.912,6.082s16.528,6.082,36.912,6.082,36.912-2.723,36.912-6.082S348.216,387.91,327.832,387.91Zm0,9.555c-18.71,0-33.873-1.752-33.873-3.908s15.164-3.9,33.873-3.9,33.869,1.743,33.869,3.9S346.537,397.465,327.832,397.465Z" transform="translate(-208.18 -246.704)" fill="url(#linear-gradient-10)"/>
    <g id="Group_7" data-name="Group 7" transform="translate(82.74 141.206)" opacity="0.2">
      <path id="Path_256" data-name="Path 256" d="M327.832,387.91c-20.389,0-36.912,2.723-36.912,6.082s16.528,6.082,36.912,6.082,36.912-2.723,36.912-6.082S348.216,387.91,327.832,387.91Zm0,9.555c-18.71,0-33.873-1.752-33.873-3.908s15.164-3.9,33.873-3.9,33.869,1.743,33.869,3.9S346.537,397.465,327.832,397.465Z" transform="translate(-290.92 -387.91)" fill="url(#linear-gradient-10)"/>
    </g>
    <path id="Path_257" data-name="Path 257" d="M327.832,384.86c-20.389,0-36.912,2.723-36.912,6.082s16.528,6.082,36.912,6.082,36.912-2.723,36.912-6.082S348.216,384.86,327.832,384.86Zm0,9.555c-18.71,0-33.873-1.752-33.873-3.908s15.168-3.908,33.873-3.908,33.869,1.73,33.869,3.9-15.164,3.908-33.869,3.908Z" transform="translate(-208.18 -244.954)" fill="url(#linear-gradient-10)"/>
    <rect id="Rectangle_17" data-name="Rectangle 17" width="18.752" height="171.327" transform="translate(110.689 152.598)" fill="#e8eaf1"/>
    <path id="Path_258" data-name="Path 258" d="M272.534,760.252H213.72L234.6,747.04h15.769Z" transform="translate(-122.636 -428.655)" fill="#e8eaf1"/>
    <path id="Path_259" data-name="Path 259" d="M162.5,161.715s79.271-78.418,181.982,0v67.764s-80.549,48.585-181.982,0Z" transform="translate(-134.491 -96.911)" fill="#e8eaf1"/>
    <path id="Path_260" data-name="Path 260" d="M176,168.731s74.259-73.462,170.475,0v63.476s-75.435,45.512-170.475,0Z" transform="translate(-142.238 -102.201)" fill="#f3f5f7"/>
    <rect id="Rectangle_18" data-name="Rectangle 18" width="45.176" height="38.357" transform="translate(96.199 104.013)" fill="#fff"/>
    <rect id="Rectangle_19" data-name="Rectangle 19" width="37.504" height="31.845" transform="translate(100.034 107.269)" fill="#f3f5f7"/>
    <path id="Path_261" data-name="Path 261" d="M345.5,455.246,331.247,430.68l-12.662,23.7-10.966-24.825-11.388,25.281-.4-.158c4.62-13.438.038-51.517,0-51.9l-.175-1.428,12,27.157,10-22.162,13.6,23.44,12.474-23.355,10.54,24.054,10.228-27.51,2.557-.511-.06.311c-.077.4-7.066,37.223-3.09,49.715l.946,2.156-.379.2a10.344,10.344,0,0,1-.972-2.212L354.3,431.618Zm-14.013-25.009,13.928,24.011,8.617-23.172L343.67,407.423Zm-23.628-1.2,10.765,24.378,12.359-23.163-13.318-22.963Zm-11.469-24.911c.729,6.555,3.559,34.521.563,48.035l10.437-23.125Zm58.1,26.939,8.392,19.149c-2.557-13.638,2.924-43.543,3.614-47.2l-1.7.341Z" transform="translate(-210.9 -254.416)" opacity="0.1"/>
    <path id="Path_262" data-name="Path 262" d="M311.244,459.146l-10.574-26.47.4-.158,10.2,25.524,10.228-23.329-13.638-25.026.375-.2L321.694,434.2l10.228-23.287h.124l30.315-2.864-28.1,50.132-12.517-23.014Zm10.719-24.455,12.3,22.609,27.319-48.747-29.377,2.774Z" transform="translate(-213.775 -258.26)" opacity="0.1"/>
    <path id="Path_263" data-name="Path 263" d="M300.637,402.013l-.222-.422L275.27,353.006l.379-.2,24.928,48.163,9.372-24.276.4.153Z" transform="translate(-157.954 -202.441)" opacity="0.1"/>
    <path id="Path_264" data-name="Path 264" d="M328.726,389.64c-20.005,0-36.226,2.672-36.226,5.967s16.221,5.967,36.226,5.967,36.226-2.672,36.226-5.967S348.731,389.64,328.726,389.64Zm0,9.376c-18.36,0-33.243-1.7-33.243-3.836s14.882-3.836,33.243-3.836,33.243,1.7,33.243,3.836S347.086,399.016,328.726,399.016Z" transform="translate(-209.087 -247.696)" fill="#5f546f"/>
    <path id="Path_265" data-name="Path 265" d="M328.726,389.64c-20.005,0-36.226,2.672-36.226,5.967s16.221,5.967,36.226,5.967,36.226-2.672,36.226-5.967S348.731,389.64,328.726,389.64Zm0,9.376c-18.36,0-33.243-1.7-33.243-3.836s14.882-3.836,33.243-3.836,33.243,1.7,33.243,3.836S347.086,399.016,328.726,399.016Z" transform="translate(-209.087 -247.696)" opacity="0.2"/>
    <path id="Path_266" data-name="Path 266" d="M328.726,386.64c-20.005,0-36.226,2.672-36.226,5.967s16.221,5.967,36.226,5.967,36.226-2.672,36.226-5.967S348.731,386.64,328.726,386.64Zm0,9.376c-18.36,0-33.243-1.7-33.243-3.836s14.882-3.836,33.243-3.836,33.243,1.7,33.243,3.836S347.086,396.016,328.726,396.016Z" transform="translate(-209.087 -245.975)" fill="#5f546f"/>
    <path id="Path_267" data-name="Path 267" d="M634.327,783.41c-11.545,3.243-24.267-.072-35.638,3.738a7.911,7.911,0,0,0-2.753,1.406c-2.719,2.374-1.645,7.007.784,9.674,3.883,4.262,9.986,5.592,15.718,6.163,28,2.783,56.005-7.343,84.04-5.212,4.168.32,9.027.665,11.822-2.442,2.063-2.289,2.2-5.818,1.185-8.724-1.871-5.336-7.041-8.98-12.483-10.51s-11.209-1.279-16.86-1.027c-7.671.349-15.407.251-23.057.759C648.907,777.8,642.075,781.249,634.327,783.41Z" transform="translate(-382.285 -469.56)" fill="#6c63ff" opacity="0.1"/>
    <path id="Path_268" data-name="Path 268" d="M652.575,434.787c-2.983-.426-8.5-5.114-8.5-5.114a4.2,4.2,0,0,0-3.661-1.862l-5.477-7.7a57.469,57.469,0,0,0-7.509-10.147q-.7-.78-1.453-1.513a40.888,40.888,0,0,0-4.748-4.049,28.261,28.261,0,0,1-3.128-2.711,36.221,36.221,0,0,1-2.557-2.83l-3.81-5.336-.256-.362a5.834,5.834,0,0,0,.077-1.581,2.757,2.757,0,0,0-.043-.371l-15.726-18.488-4.688-9.564h0c-.055.047-.243.2-.537.426l-.085-.243v-.916a39.434,39.434,0,0,1,4.778-18.957,13.322,13.322,0,0,0,1.615-6.363v-.537l-.081-.089c-.149-.166-.49-.55-.929-1.117.055-.111.115-.226.17-.332,1.952-3.589,4.667-4.2,4.667-4.2a32.074,32.074,0,0,0,15.726-7.437c6.819-3.836,5.54-7.245,5.54-7.245L615.8,301.271l-3.836-7.863-1.061-3.614a60.929,60.929,0,0,0-1.47-7.13,4.346,4.346,0,0,0-7.612-1.611c-.051.068-.107.141-.158.217a6.819,6.819,0,0,0,1.219,9.1c2.131,1.816,3.985,3.678,3.985,3.678,3.836,1.061,6.393,20.823,6.393,20.823l-2.557,1.7a14.213,14.213,0,0,0-10.2,5.114h-8.021a.386.386,0,0,1,.034-.107l-1.33-.3-3.836-.852-1.419-.32-.021.09-.4-.09v.055a23.872,23.872,0,0,1-1.449-2.655,1.156,1.156,0,0,0,.345,0,1.794,1.794,0,0,0,.077-.192h.136c.592-1.279.081-2.877.652-4.181a15.514,15.514,0,0,1,1.023-1.59,7.721,7.721,0,0,0,.5-5,12.184,12.184,0,0,0-1.735-5.182,5.154,5.154,0,0,0-4.688-2.382c-1.449.192-2.719,1.185-4.177,1.279a8.241,8.241,0,0,1-2.983-.661,18.987,18.987,0,0,0-3.235-.737,2.33,2.33,0,0,0-2.076.426l-.043.055a1.245,1.245,0,0,0-.171.158,2.413,2.413,0,0,0-.426.81l-.942,2.6a.6.6,0,0,0,0,.575c.085.107.234.136.349.209.746.482-.256,1.671.362,2.255a3.109,3.109,0,0,0,1.948.384,8.285,8.285,0,0,0,5.212,12.53v.426a17.421,17.421,0,0,1-.264,3.354h0l-.622.055c-1.036.055-3.128.136-4.957.051a16.5,16.5,0,0,1-1.828-.175s-.072.776-.213,1.965l-.426.119a17.763,17.763,0,0,0-9.76,7.049l-9.564,5.54s-4.262-1.061-16.574,9.564l-8.924,4.688s-13.634,4.015-11.085,8.046,15.3-4.884,15.3-4.884l5.114-2.335L545.9,345.51a48.461,48.461,0,0,1,8.924-4.688c3.81-1.279,7.65-5.114,7.65-5.114l.959-.051.426-.026a3.6,3.6,0,0,1-.209.332,1.7,1.7,0,0,1-.124.166v34.21l-.068.95h.03L562.466,385.2s.213,6.393-.639,9.986.639,18.275.639,18.275.558,0,1.466-.064l-.026.426-.375,6.014s-.716,2.318,3.41,3.525a9.966,9.966,0,0,1,2.668,1.223l4.756,3.115,4.888,2.983.989,2.076.047.1-1.04-.635s-.852,2.131,1.914,4.888a9.035,9.035,0,0,1,2.983,7.437s.426,5.114,2.983,3.836c0,0,4.036-.852,3.836-7.863,0,0-1.611-5.839.264-8.306q.077-.1.162-.2c2.131-2.336-.639-5.967-.639-5.967s-4.922-1.986-5.2,1.313l-.2-.09a10.9,10.9,0,0,1-4.16-3.985s-2.762-7.011-7.011-7.65l.712-4.036.081-.465a6.752,6.752,0,0,0,3.243-2.728h0l.026-.051v-.111l.021-.043v-.034l.021-.047.026-.051v-.043l.03-.06.081-.043.03-.064.026-.055.034-.072.03-.06.034-.072.038-.077.03-.06.043-.09.03-.06.183-.4.026-.051.051-.111.038-.081.055-.124.034-.072.064-.145.026-.06.068-.149.034-.072.068-.153.03-.068.073-.162.03-.064.077-.17.026-.064.077-.179.026-.06.085-.192v-.034c1.36-3.162,3.069-7.71,2.983-10.4a6.218,6.218,0,0,0,0-.644h-.051v-.043a.863.863,0,0,0-.06-.256l11.473,2.557,6.819,7.437h.153l.043-.021h.038l.055-.026.043-.021.06-.03.051-.026.072-.038.047-.026.081-.043.051-.03.085-.043.06-.034.094-.051.06-.03.1-.055.068-.038.107-.06.072-.175.119-.068.064-.034.124-.068.072-.043.128-.072.068-.043.136-.081.072-.043.141-.085.068-.043.149-.089h.026l.239.277,2.983,3.461c2.983,1.279,9.777,7.65,9.777,7.65.784,1.879,4.1,4.564,5.8,5.852a10.592,10.592,0,0,0,1.538.946,18.125,18.125,0,0,1,3.435,2.787,43.763,43.763,0,0,0,5.016,4.262,22.363,22.363,0,0,1,4.343,4.381h0l.145.188c-1.014,3.409,4.79,6.874,4.79,6.874,2.131-.426,8.711,5.54,8.711,5.54s6.163,4.888,8.711-.426S652.575,434.787,652.575,434.787Zm-11.26-5.694-.852-1.206h0a1.474,1.474,0,0,1,.84,1.193Z" transform="translate(-333.693 -184.439)" fill="url(#linear-gradient-13)"/>
    <path id="Path_269" data-name="Path 269" d="M670.6,369.261s-21.5,12.526-16.907,5.425a17.861,17.861,0,0,0,2.983-10.1,13.138,13.138,0,0,0-.469-3.469l8.976-4.177a8.652,8.652,0,0,0,.324,3.661C666.764,365.042,670.6,369.261,670.6,369.261Z" transform="translate(-415.975 -228.933)" fill="#a0616a"/>
    <path id="Path_270" data-name="Path 270" d="M669.729,360.611A8.149,8.149,0,0,1,660.9,364.6a13.141,13.141,0,0,0-.469-3.469l8.975-4.177A8.653,8.653,0,0,0,669.729,360.611Z" transform="translate(-420.21 -228.938)" opacity="0.1"/>
    <circle id="Ellipse_21" data-name="Ellipse 21" cx="8.14" cy="8.14" r="8.14" transform="translate(234.275 119.143)" fill="#a0616a"/>
    <path id="Path_271" data-name="Path 271" d="M647.505,335.356a3.124,3.124,0,0,1,1.939,1.279c.537.852.524,2.02,1.279,2.685a2.7,2.7,0,0,0,1.982.5,9.555,9.555,0,0,1,2.093-.073,4.189,4.189,0,0,1,2.681,1.973A27.2,27.2,0,0,1,659,344.792a3.623,3.623,0,0,0,.759,1.121,1.453,1.453,0,0,0,1.249.4c.584-1.279.081-2.83.639-4.1a15.245,15.245,0,0,1,1-1.56,7.456,7.456,0,0,0,.486-4.91,11.927,11.927,0,0,0-1.7-5.089,5.094,5.094,0,0,0-4.586-2.34c-1.423.188-2.672,1.163-4.1,1.249a8.234,8.234,0,0,1-2.949-.648,18.65,18.65,0,0,0-3.175-.724,2.267,2.267,0,0,0-2.037.426,2.371,2.371,0,0,0-.426.793l-.925,2.557a.588.588,0,0,0,0,.567c.085.1.23.132.341.209.733.473-.251,1.641.354,2.216S646.657,335.156,647.505,335.356Z" transform="translate(-410.294 -212.404)" opacity="0.1"/>
    <path id="Path_272" data-name="Path 272" d="M648,334.866a3.124,3.124,0,0,1,1.939,1.279c.537.852.524,2.02,1.279,2.685a2.7,2.7,0,0,0,1.982.5,9.552,9.552,0,0,1,2.093-.072,4.189,4.189,0,0,1,2.681,1.973,27.193,27.193,0,0,1,1.517,3.069,3.624,3.624,0,0,0,.759,1.121,1.453,1.453,0,0,0,1.249.4c.584-1.279.081-2.83.639-4.1a15.231,15.231,0,0,1,1-1.56,7.457,7.457,0,0,0,.486-4.91,11.926,11.926,0,0,0-1.7-5.089,5.094,5.094,0,0,0-4.586-2.34c-1.423.188-2.672,1.163-4.1,1.249a8.234,8.234,0,0,1-2.949-.648,18.65,18.65,0,0,0-3.175-.724,2.267,2.267,0,0,0-2.037.426,2.37,2.37,0,0,0-.426.793l-.925,2.557a.588.588,0,0,0,0,.567c.085.1.23.132.341.209.733.473-.251,1.641.354,2.216S647.147,334.666,648,334.866Z" transform="translate(-410.575 -212.122)" fill="#472727"/>
    <path id="Path_273" data-name="Path 273" d="M716.16,326.2a31.463,31.463,0,0,1-15.445,7.3s-2.668.605-4.586,4.13a14.95,14.95,0,0,0-1.47,4.219l-9.632-16.319-.6-1.01H700.5a13.962,13.962,0,0,1,10.02-5.008l2.506-1.671s-2.506-19.413-6.261-20.457c0,0-1.833-1.833-3.917-3.614a6.7,6.7,0,0,1-1.2-8.95c.051-.072.1-.145.158-.213a4.272,4.272,0,0,1,7.48,1.585,59.861,59.861,0,0,1,1.445,7.024l1.044,3.55,3.759,7.723,6.052,14.61S722.838,322.446,716.16,326.2Z" transform="translate(-433.982 -186.499)" fill="#a0616a"/>
    <path id="Path_274" data-name="Path 274" d="M569.646,386.34l-1.253,11.081-2.817.158-.942.051s-3.759,3.759-7.514,5.008a46.928,46.928,0,0,0-8.767,4.594L533.118,413.9l-5.008,2.3s-12.526,8.784-15.032,4.8,10.868-7.948,10.868-7.948l8.767-4.594c12.108-10.437,16.28-9.376,16.28-9.376l9.376-5.425a17.448,17.448,0,0,1,9.585-6.926A11.807,11.807,0,0,1,569.646,386.34Z" transform="translate(-335.478 -245.803)" fill="#a0616a"/>
    <path id="Path_275" data-name="Path 275" d="M696.932,391.454a14.948,14.948,0,0,0-1.47,4.219l-9.632-16.319a6.671,6.671,0,0,0,.6-1.01,8.094,8.094,0,0,0,.58-1.564l1.394.315,3.772.852,1.308.294a.48.48,0,0,1-.034.1C691.694,383.5,695.006,388.9,696.932,391.454Z" transform="translate(-434.785 -240.317)" opacity="0.1"/>
    <path id="Path_276" data-name="Path 276" d="M640.75,386.34,639.5,397.421l-2.817.158c1.2-2.131,2.012-7.774,2.382-10.838a11.8,11.8,0,0,1,1.688-.4Z" transform="translate(-406.582 -245.803)" opacity="0.1"/>
    <path id="Path_277" data-name="Path 277" d="M668.1,399.523a38.714,38.714,0,0,0-4.688,18.8v.925s2.3,6.261,0,6.261-2.088,3.133-5.008,3.759-13.152,5.008-16.28,3.133-5.216-5.843-5.216-5.843V392.533a1.679,1.679,0,0,0,.124-.166c1.8-2.557,2.8-13.212,2.8-13.212a16.22,16.22,0,0,0,1.8.175c1.794.085,3.836,0,4.867-.051l.639-.038a9.245,9.245,0,0,0,5.481,1.615,9.239,9.239,0,0,1,1.279.094c3.525.494,4.6-4.189,4.6-4.189l1.394.315,3.772.852,1.308.294c-2.348,6.653,3.836,13.766,4.616,14.627l.081.089A13.059,13.059,0,0,1,668.1,399.523Z" transform="translate(-406.714 -240.306)" fill="#d95560"/>
    <path id="Path_278" data-name="Path 278" d="M641.648,382.572c0,2.766-.661,11.933-4.718,13.259v-.072a1.67,1.67,0,0,0,.124-.166c1.8-2.557,2.8-13.212,2.8-13.212A16.234,16.234,0,0,0,641.648,382.572Z" transform="translate(-406.725 -243.531)" fill="#fff" opacity="0.3"/>
    <path id="Path_279" data-name="Path 279" d="M704.949,394.457c-7.637-.392-6.734-10.382-5.924-14.917l1.308.294C697.986,386.483,704.165,393.6,704.949,394.457Z" transform="translate(-442.056 -241.901)" fill="#fff" opacity="0.3"/>
    <g id="Group_8" data-name="Group 8" transform="translate(234.667 139.165)" opacity="0.1">
      <path id="Path_280" data-name="Path 280" d="M675.707,414.127a.1.1,0,0,0-.081-.089c-1.7-.426.188.192-1.7-.426-.073-.026.1-.311.1-.311a13.058,13.058,0,0,1-1.585,6.572,38.715,38.715,0,0,0-4.688,18.8v.921s2.3,6.261,0,6.261-2.088,3.132-5.008,3.759c-2.676.575-11.477,4.3-15.343,3.473.239.175.482.341.733.49,3.132,1.879,13.361-2.506,16.28-3.132s2.715-3.759,5.008-3.759,0-6.261,0-6.261V439.5a38.716,38.716,0,0,1,4.688-18.8A13.058,13.058,0,0,0,675.707,414.127Z" transform="translate(-647.4 -400.438)"/>
      <path id="Path_281" data-name="Path 281" d="M661.406,383.333c-.1-.068-.2-.141-.294-.213h-.222A5.273,5.273,0,0,0,661.406,383.333Z" transform="translate(-655.141 -383.12)"/>
    </g>
    <path id="Path_282" data-name="Path 282" d="M762.158,576.213l-2.5,5.634a35,35,0,0,0-2.344-3.388h0a21.968,21.968,0,0,0-4.262-4.3,42.981,42.981,0,0,1-4.927-4.185,17.882,17.882,0,0,0-3.375-2.74,10.415,10.415,0,0,1-1.513-.929c-1.662-1.279-4.927-3.9-5.7-5.745,0,0-6.678-6.261-9.6-7.514l-2.915-3.409-3.35-3.908,8.558-8.558,2.519,3.525,3.746,5.242a34.151,34.151,0,0,0,5.775,5.651,38.846,38.846,0,0,1,5.881,5.255,56.453,56.453,0,0,1,7.33,9.977l5.383,7.565.038.06.852,1.189Z" transform="translate(-455.35 -332.351)" fill="#a0616a"/>
    <path id="Path_283" data-name="Path 283" d="M660.425,601.577l-3.341,7.931-2.711-2.924-1.117-2.344-.972-2.041-4.8-2.924-4.688-3.06a9.8,9.8,0,0,0-2.621-1.2c-4.053-1.185-3.354-3.461-3.354-3.461l.371-5.907.256-4.113,11.081-1.253-.554,3.132-.7,3.964c4.177.627,6.887,7.514,6.887,7.514a10.582,10.582,0,0,0,4.087,3.912,3.2,3.2,0,0,0,.716.26Z" transform="translate(-406.635 -357.088)" fill="#a0616a"/>
    <path id="Path_284" data-name="Path 284" d="M813.588,624.565l-.1-.055h.06Z" transform="translate(-508.038 -382.468)" opacity="0.1"/>
    <path id="Path_285" data-name="Path 285" d="M810.146,628.023l-2.5,5.634a35.01,35.01,0,0,0-2.344-3.388c.384.367,2.527,2.318,3.213.537a20.9,20.9,0,0,1,.908-2.131,2.348,2.348,0,0,0,.311-1.215Z" transform="translate(-503.338 -384.161)" opacity="0.1"/>
    <path id="Path_286" data-name="Path 286" d="M773.252,576.163l-.852-1.189-.038-.06-5.383-7.565a56.459,56.459,0,0,0-7.343-9.969,38.846,38.846,0,0,0-5.881-5.255,34.146,34.146,0,0,1-5.775-5.651l-3.733-5.221-2.519-3.525-.367.367,2.255,3.158,3.746,5.242a34.151,34.151,0,0,0,5.779,5.634,38.844,38.844,0,0,1,5.881,5.255,56.459,56.459,0,0,1,7.33,9.964l5.391,7.573.038.06.852,1.189.426.58-2.242,5.046c.234.371.367.588.367.588l2.506-5.634Z" transform="translate(-466.649 -332.672)" opacity="0.1"/>
    <path id="Path_287" data-name="Path 287" d="M682.618,626.52l-3.341,7.931-2.711-2.924-1.117-2.344,3.2,2.131c3.15-1.969,1.935-7,1.79-7.565a3.2,3.2,0,0,0,.716.26Z" transform="translate(-428.829 -382.032)" opacity="0.1"/>
    <path id="Path_288" data-name="Path 288" d="M679.159,621.521s1.564,5.54-1.773,7.62L673,626.218s-.852,2.088,1.879,4.8a8.873,8.873,0,0,1,2.924,7.3s.426,5.008,2.924,3.759c0,0,3.968-.852,3.759-7.722,0,0-1.581-5.732.26-8.157q.077-.1.158-.192c2.088-2.3-.626-5.843-.626-5.843S679.368,618.184,679.159,621.521Z" transform="translate(-427.351 -379.641)" fill="#535461"/>
    <path id="Path_289" data-name="Path 289" d="M663.445,482.576c-2.3,0-2.088,3.133-5.008,3.759s-13.152,5.008-16.28,3.133-5.217-5.843-5.217-5.843V483.2c5.217,2.715,11.69,0,11.69,0,4.611.886,12.543-5.161,14.819-7v.107S665.737,482.576,663.445,482.576Z" transform="translate(-406.731 -297.366)" opacity="0.1"/>
    <path id="Path_290" data-name="Path 290" d="M638.069,581.543l11.081-1.253-.554,3.132c-3.431,1.594-8.37,2.084-10.765,2.233Z" transform="translate(-407.242 -357.094)" opacity="0.1"/>
    <path id="Path_291" data-name="Path 291" d="M732.727,540.726c-.524,3.836-4.812,7.13-7.727,8.95l-3.35-3.908,8.558-8.558Z" transform="translate(-455.339 -332.374)" opacity="0.1"/>
    <path id="Path_292" data-name="Path 292" d="M646.014,483.5s-6.469,2.715-11.69,0l-1.044,14.2s.209,6.261-.627,9.8.627,17.951.627,17.951,12.943-.209,15.445-5.008c0,0,5.425-10.855,4.385-14.61l11.273,2.506,6.683,7.3s11.482-5.425,10.437-12.108l-15.449-18.151L661.463,476S651.443,484.545,646.014,483.5Z" transform="translate(-404.123 -297.251)" fill="#d95560"/>
    <path id="Path_293" data-name="Path 293" d="M671.057,515.635l-6.678-7.3-11.277-2.5c.026.094.047.192.068.294a4.15,4.15,0,0,1,.06.605c.175,4.343-4.509,13.715-4.509,13.715-2.506,4.8-15.445,5.008-15.445,5.008s-1.483-14.4-.631-17.947.627-9.8.627-9.8l1.006-13.668.038-.524A11.226,11.226,0,0,0,639,484.707a18.164,18.164,0,0,0,6.781-1.1l.222-.089q.183.034.375.055c4.483.494,11.673-4.85,14.175-6.84.567-.452.9-.729.9-.729l4.594,9.376,15.445,18.16a5.011,5.011,0,0,1,.06.631C681.818,510.559,671.057,515.635,671.057,515.635Z" transform="translate(-404.115 -297.251)" opacity="0.1"/>
    <path id="Path_294" data-name="Path 294" d="M672.828,377.111c-4.65,8.4-11.507,3.75-13.408,2.208l.639-.038a9.244,9.244,0,0,0,5.481,1.615,9.236,9.236,0,0,1,1.279.094c3.525.494,4.6-4.189,4.6-4.189Z" transform="translate(-419.63 -240.329)" fill="#fff" opacity="0.3"/>
    <path id="Path_295" data-name="Path 295" d="M809.047,624.991a4.112,4.112,0,0,1,3.652,1.824s5.421,4.569,8.34,4.995c0,0,8.767,3.759,6.261,8.975s-8.558.426-8.558.426-6.469-5.843-8.558-5.425c0,0-5.741-3.444-4.688-6.785,0,0,2.514,2.557,3.273.592a20.8,20.8,0,0,1,.9-2.131A1.627,1.627,0,0,0,809.047,624.991Z" transform="translate(-503.377 -382.74)" fill="#535461"/>
    <path id="Path_296" data-name="Path 296" d="M647.152,493.095c-2.182.635-6.572,1.483-10.314-.465l-.068.933C641.309,495.213,646.329,493.414,647.152,493.095Z" transform="translate(-406.634 -306.793)" opacity="0.1"/>
    <path id="Path_297" data-name="Path 297" d="M666.069,492a7.462,7.462,0,0,1-3.371.286s-.46.192-1.227.426A9.408,9.408,0,0,0,666.069,492Z" transform="translate(-420.807 -306.432)" opacity="0.1"/>
    <path id="Path_298" data-name="Path 298" d="M719.488,504.148c-.2,6.193-10.5,11.06-10.5,11.06l-.145-.158c2.851-1.564,10.173-6.137,9.329-11.533l-15.449-18.164-4.236-8.664c.567-.452.9-.729.9-.729l4.594,9.376,15.445,18.16A5,5,0,0,1,719.488,504.148Z" transform="translate(-442.049 -297.228)" opacity="0.1"/>
    <path id="Path_299" data-name="Path 299" d="M666.307,546c1.044,3.759-4.385,14.61-4.385,14.61a7.762,7.762,0,0,1-4.351,3.167c2.489-.742,4.709-1.871,5.6-3.584,0,0,4.816-9.632,4.5-13.889Z" transform="translate(-418.569 -337.418)" opacity="0.1"/>
    <path id="Path_300" data-name="Path 300" d="M662.573,418.91c-2.941,0-5.323,3.41-5.323,7.62s2.382,7.62,5.323,7.62,5.323-3.409,5.323-7.62S665.514,418.91,662.573,418.91Zm0,12.108c-1.73,0-3.137-2.007-3.137-4.488s1.4-4.488,3.137-4.488,3.137,2.007,3.137,4.488S664.3,431.018,662.573,431.018Z" transform="translate(-418.385 -264.492)" fill="#fff" opacity="0.3"/>
    <path id="Path_301" data-name="Path 301" d="M717.55,275.348v.733a1.719,1.719,0,0,1-.03.392,12.935,12.935,0,0,1-2.131,6.124c-.081.124-.166.243-.251.362a12.581,12.581,0,0,1-10.229,5.276,8.093,8.093,0,0,1-.852-.03c-.281-.03-.524-.043-.784-.077h0a12.637,12.637,0,0,1-8.916-5.664c-.068-.1-.132-.2-.192-.3v-.021a12.985,12.985,0,0,1-1.905-6.793,13.2,13.2,0,0,1,.136-1.909l.068-.426a12.888,12.888,0,0,1,6.768-9.2l.46-.226a12.513,12.513,0,0,1,9.594-.371,12.159,12.159,0,0,1,1.18.511h0a12.841,12.841,0,0,1,6.21,6.755c.043.1.077.192.111.29a13.051,13.051,0,0,1,.763,4.573Z" transform="translate(-438.475 -174.706)" fill="#f88787"/>
    <path id="Path_302" data-name="Path 302" d="M726.072,272.36a8.775,8.775,0,0,1-2.5.362H723.1a4.5,4.5,0,0,1-.6-.051,10.684,10.684,0,0,1-4.637-1.7h0a19.274,19.274,0,0,0-9.333-5.54l.46-.226a19.16,19.16,0,0,1,8.345,4.773,8.677,8.677,0,0,0,2.924,1.824,10.162,10.162,0,0,0,2.314.558c.17,0,.337.034.5.047h.337a8.438,8.438,0,0,0,2.557-.324A2.346,2.346,0,0,0,726.072,272.36Z" transform="translate(-447.81 -176.291)" fill="#fff" opacity="0.5"/>
    <path id="Path_303" data-name="Path 303" d="M717.615,288.867a1.722,1.722,0,0,1-.03.392,17.192,17.192,0,0,0-3.473-1.7l-.32-.115a43.045,43.045,0,0,0-8.95-1.978c-7.16-.912-10.731-.06-12.432.75l.068-.426c1.841-.81,5.468-1.547,12.406-.665a44.131,44.131,0,0,1,8.95,1.956l.32.115A17.716,17.716,0,0,1,717.615,288.867Z" transform="translate(-438.561 -187.493)" fill="#fff" opacity="0.5"/>
    <path id="Path_304" data-name="Path 304" d="M728.872,275.51a3.375,3.375,0,0,1-.038.349q-.111.874-.315,1.828-.158.72-.349,1.385c-.034.115-.068.23-.1.341a14.771,14.771,0,0,1-7.518,9.129,15.481,15.481,0,0,1-1.7.742l-.784-.077h0a15.445,15.445,0,0,0,2.378-.963,14.449,14.449,0,0,0,7.369-9.027c.034-.1.064-.209.094-.315q.179-.618.324-1.279.209-.959.32-1.875a3.237,3.237,0,0,1,.038-.349,15.543,15.543,0,0,0,0-3.179,2.086,2.086,0,0,0-.038-.328,10.7,10.7,0,0,0-2.838-6.129,10.92,10.92,0,0,0-1.7-1.453,12.162,12.162,0,0,1,1.181.511h0q.375.328.742.716a11.081,11.081,0,0,1,2.9,6.363,2.8,2.8,0,0,0,.038.324A15.835,15.835,0,0,1,728.872,275.51Z" transform="translate(-453.279 -175.78)" fill="#fff" opacity="0.5"/>
    <path id="Path_305" data-name="Path 305" d="M717.84,303c-.081.124-.166.243-.251.362a17.008,17.008,0,0,0-1.7-4.437.851.851,0,0,0-.149-.188,1.168,1.168,0,0,0-.286-.192c-1.641-.814-6.542.55-10.186,2.519a19.329,19.329,0,0,1-8.481,1.8l-.192-.3v-.021a19.236,19.236,0,0,0,8.524-1.764c3.41-1.833,8.481-3.409,10.433-2.557a1.658,1.658,0,0,1,.294.166,1.215,1.215,0,0,1,.332.358A17.553,17.553,0,0,1,717.84,303Z" transform="translate(-440.959 -195.102)" fill="#fff" opacity="0.5"/>
    <rect id="Rectangle_20" data-name="Rectangle 20" width="18.752" height="2.131" transform="translate(110.476 317.319)" opacity="0.1"/>
    <path id="Path_306" data-name="Path 306" d="M122.972,93.005,79.22,137.1v10.442L128.871,91.1Z" transform="translate(-45.458 -52.268)" fill="#fff" opacity="0.3"/>
    <path id="Path_307" data-name="Path 307" d="M138.072,82.671,79.22,157.219V168.27l73.534-87.79Z" transform="translate(-45.458 -46.174)" fill="#fff" opacity="0.3"/>
  </g>
</svg>
